<svg width="100" height="100" viewBox="0 0 100 100" fill="none" xmlns="http://www.w3.org/2000/svg">
<path d="M22 42.5H29.5M29.5 42.5H37M29.5 42.5V35M29.5 42.5V50" stroke="white" stroke-width="10" stroke-linecap="round" stroke-linejoin="round"/>
<path fill-rule="evenodd" clip-rule="evenodd" d="M75 35C75 37.7614 72.7614 40 70 40C67.2386 40 65 37.7614 65 35C65 32.2386 67.2386 30 70 30C72.7614 30 75 32.2386 75 35ZM62 48C64.7614 48 67 45.7614 67 43C67 40.2386 64.7614 38 62 38C59.2386 38 57 40.2386 57 43C57 45.7614 59.2386 48 62 48ZM78 48C80.7614 48 83 45.7614 83 43C83 40.2386 80.7614 38 78 38C75.2386 38 73 40.2386 73 43C73 45.7614 75.2386 48 78 48ZM70 56C72.7614 56 75 53.7614 75 51C75 48.2386 72.7614 46 70 46C67.2386 46 65 48.2386 65 51C65 53.7614 67.2386 56 70 56Z" fill="white"/>
<path d="M64.1649 64.2354L70.072 74.052C71.651 76.6761 74.0113 78.7405 76.8223 79.9561L77.7246 80.3462C80.324 81.4703 83.2373 81.6379 85.9485 80.8195C91.2568 79.217 94.7738 74.1835 94.453 68.6478L93.7719 56.893C93.5085 52.348 92.6256 47.8601 91.1477 43.554L85.7249 27.7542C84.5117 24.2194 81.4288 21.6561 77.732 21.1084L64.6549 19.1711C54.938 17.7316 45.062 17.7316 35.3451 19.1711L22.0562 21.1398C18.4714 21.6709 15.4544 24.0999 14.1704 27.4889L8.60118 42.1882C6.63145 47.3871 5.56171 52.8835 5.43783 58.4416L5.21055 68.6395C5.08755 74.1586 8.81659 79.0216 14.1786 80.3348C16.1905 80.8275 18.2969 80.7806 20.2849 80.1987L21.4284 79.864C25.3326 78.7213 28.6644 76.152 30.7618 72.6663L35.8351 64.2354C37.6439 61.2295 40.8954 59.3913 44.4034 59.3913H55.5966C59.1046 59.3913 62.3562 61.2295 64.1649 64.2354Z" stroke="white" stroke-width="10" stroke-linecap="round" stroke-linejoin="round"/>
</svg>
