<svg width="100" height="100" viewBox="0 0 100 100" fill="none" xmlns="http://www.w3.org/2000/svg">
<g clip-path="url(#clip0_101_2)">
<circle cx="50" cy="50" r="50" fill="#E96012"/>
<path fill-rule="evenodd" clip-rule="evenodd" d="M13.7414 23.2535C13.208 23.3964 12.8914 23.9447 13.0343 24.4782L21.6841 56.7594C21.827 57.2929 22.3753 57.6095 22.9088 57.4665L30.9646 55.308C31.4981 55.1651 31.8147 54.6167 31.6717 54.0833L28.4621 42.1048C28.1879 41.0816 29.4844 40.3903 30.1812 41.1882L35.4798 47.2554C35.7307 47.5428 36.1233 47.6623 36.4918 47.5636L40.6509 46.4491C41.0207 46.3501 41.3015 46.0485 41.374 45.6725L42.8868 37.8262C43.0877 36.784 44.5599 36.7315 44.8346 37.7567L48.0345 49.6989C48.1775 50.2323 48.7258 50.5489 49.2593 50.406L57.3151 48.2474C57.8485 48.1045 58.1651 47.5561 58.0222 47.0227L49.3725 14.7414C49.2295 14.208 48.6812 13.8914 48.1477 14.0343L40.0491 16.2043C39.6794 16.3034 39.3986 16.6048 39.3261 16.9806L36.0413 33.9889C35.8833 34.8069 34.853 35.0843 34.3056 34.4563L22.9075 21.3777C22.6566 21.0898 22.2637 20.9699 21.8948 21.0688L13.7414 23.2535ZM68.5701 42.4013C68.1701 42.2941 67.7454 42.4445 67.5021 42.7796L46.4712 71.7434C46.0591 72.3109 46.3441 73.1153 47.0215 73.2968L55.3672 75.5331C55.7662 75.64 56.1898 75.4906 56.4335 75.157L60.3908 69.7401C60.6345 69.4065 61.0581 69.2571 61.4571 69.364L70.444 71.7721C70.8407 71.8784 71.1321 72.2165 71.1787 72.6246L71.9429 79.3189C71.9895 79.727 72.2809 80.0651 72.6776 80.1714L81.0278 82.4088C81.7053 82.5903 82.3543 82.0362 82.2812 81.3386L78.5497 45.7399C78.5066 45.328 78.214 44.9854 77.814 44.8782L68.5701 42.4013ZM71.5471 62.9769C71.6185 63.6737 70.97 64.2261 70.2935 64.0448L65.4466 62.7461C64.77 62.5648 64.4846 61.7621 64.8949 61.1944L69.0229 55.4822C69.5611 54.7375 70.7345 55.0519 70.8282 55.966L71.5471 62.9769Z" fill="white"/>
</g>
<defs>
<clipPath id="clip0_101_2">
<rect width="100" height="100" fill="white"/>
</clipPath>
</defs>
</svg>
