<svg width="100" height="100" viewBox="0 0 100 100" fill="none" xmlns="http://www.w3.org/2000/svg">
<g clip-path="url(#clip0_93_38)">
<path d="M91.9979 0.00896821H8.5623C7.48689 -0.0414022 6.41204 0.120772 5.39938 0.486301C4.38671 0.85183 3.45611 1.41346 2.66075 2.13902C1.86546 2.86464 1.22104 3.74 0.764483 4.71491C0.307932 5.68988 0.0481239 6.74529 0 7.82075V91.4383C0.0629986 93.6887 0.985351 95.8304 2.57763 97.4221C4.1699 99.0145 6.31135 99.9369 8.5623 100H91.9979C94.186 99.9025 96.249 98.9513 97.7446 97.3509C99.2402 95.7504 100.049 93.6281 99.9977 91.4383V7.82075C100.016 6.77397 99.8196 5.73463 99.4215 4.76635C99.0233 3.79812 98.4315 2.92139 97.6821 2.18989C96.9334 1.45846 96.0428 0.887764 95.0653 0.512736C94.0878 0.137708 93.0441 -0.0337154 91.9979 0.00896821ZM31.2493 83.3765H16.6871V38.8181H31.2493V83.3765ZM24.3119 32.0685C23.2958 32.104 22.2832 31.9289 21.338 31.5543C20.3927 31.1797 19.5351 30.6137 18.8191 29.8918C18.1031 29.1699 17.544 28.3078 17.1772 27.3596C16.8102 26.4114 16.6434 25.3975 16.6871 24.3817C16.6422 23.355 16.8124 22.3302 17.1868 21.3731C17.5612 20.4159 18.1316 19.5476 18.8613 18.8239C19.591 18.1001 20.4639 17.5368 21.4241 17.1702C22.3843 16.8036 23.4105 16.6417 24.4369 16.6949C25.4531 16.6596 26.4656 16.8346 27.4109 17.2092C28.3562 17.5838 29.2138 18.1498 29.9297 18.8717C30.6458 19.5936 31.2048 20.4557 31.5717 21.4039C31.9386 22.3521 32.1054 23.366 32.0618 24.3817C32.1067 25.4085 31.9365 26.4333 31.5621 27.3904C31.1877 28.3476 30.6173 29.2159 29.8876 29.9396C29.1579 30.6634 28.285 31.2267 27.3248 31.5933C26.3646 31.9599 25.3384 32.1218 24.3119 32.0685ZM83.3731 83.3765H68.7484V59.0038C68.7484 53.1918 66.686 49.1922 61.4986 49.1922C59.8874 49.2059 58.3193 49.7177 57.0106 50.6576C55.7012 51.5976 54.715 52.9193 54.1863 54.4417C53.78 55.5828 53.61 56.7946 53.6863 58.0038V83.3765H39.3116V38.8181H53.6863V45.0675C54.9644 42.7196 56.8662 40.771 59.1824 39.4362C61.4986 38.1019 64.1385 37.4337 66.811 37.5055C76.2482 37.5055 83.3731 43.7551 83.3731 57.0664V83.3765Z" fill="white"/>
</g>
<defs>
<clipPath id="clip0_93_38">
<rect width="100" height="100" fill="white"/>
</clipPath>
</defs>
</svg>
