<svg width="900" height="600" viewBox="0 0 900 600" fill="none" xmlns="http://www.w3.org/2000/svg">
<g clip-path="url(#clip0_83_2)">
<rect width="900" height="600" fill="white"/>
<path d="M-3.19186 438.834C-3.86588 436.318 -2.37308 433.733 0.142397 433.059L25.1931 426.347C27.7086 425.672 30.2942 427.165 30.9682 429.681L59.0379 534.438C59.7119 536.954 58.2191 539.539 55.7037 540.213L30.6529 546.926C28.1375 547.6 25.5519 546.107 24.8778 543.591L-3.19186 438.834Z" fill="black" fill-opacity="0.1"/>
<path d="M58.2963 422.358C57.6222 419.843 59.1151 417.257 61.6305 416.583L86.6813 409.871C89.1968 409.197 91.7823 410.69 92.4563 413.205L120.526 517.963C121.2 520.478 119.707 523.064 117.192 523.738L92.1411 530.45C89.6256 531.124 87.04 529.631 86.366 527.116L58.2963 422.358Z" fill="black" fill-opacity="0.1"/>
<path fill-rule="evenodd" clip-rule="evenodd" d="M205.326 379.51C204.243 378.884 202.956 378.715 201.748 379.039L158.356 390.666C157.148 390.989 156.118 391.78 155.493 392.863L133.032 431.767C132.406 432.85 132.237 434.137 132.56 435.345L144.187 478.737C144.511 479.945 145.301 480.975 146.384 481.6L185.289 504.061C186.372 504.687 187.659 504.856 188.867 504.532L232.259 492.906C233.467 492.582 234.497 491.792 235.122 490.709L257.583 451.804C258.209 450.721 258.378 449.434 258.054 448.226L246.427 404.834C246.104 403.626 245.313 402.596 244.23 401.971L205.326 379.51ZM203.661 392.16C202.578 391.535 201.291 391.366 200.083 391.689L166.124 400.788C164.916 401.112 163.886 401.902 163.261 402.985L145.682 433.432C145.057 434.515 144.887 435.802 145.211 437.01L154.31 470.969C154.634 472.177 155.424 473.207 156.507 473.833L186.954 491.411C188.037 492.036 189.324 492.206 190.532 491.882L224.491 482.783C225.699 482.459 226.729 481.669 227.354 480.586L244.933 450.139C245.558 449.056 245.727 447.769 245.404 446.561L236.304 412.602C235.981 411.394 235.191 410.364 234.107 409.739L203.661 392.16Z" fill="black" fill-opacity="0.1"/>
<path d="M160.883 454.695L158.246 457.862C159.014 458.773 159.954 459.557 161.064 460.217C162.175 460.876 163.386 461.315 164.697 461.533C166.024 461.724 167.368 461.637 168.728 461.273C169.749 460.999 170.673 460.581 171.502 460.017C172.357 459.469 173.08 458.808 173.67 458.035C174.255 457.241 174.645 456.361 174.843 455.397C175.04 454.433 174.993 453.409 174.703 452.325C174.447 451.368 174.062 450.572 173.55 449.934C173.053 449.27 172.457 448.746 171.762 448.363C171.083 447.953 170.351 447.648 169.569 447.447C168.807 447.241 168.031 447.107 167.24 447.046C166.011 446.965 164.976 446.844 164.135 446.682C163.289 446.499 162.631 446.253 162.161 445.946C161.686 445.618 161.374 445.178 161.226 444.625C161.078 444.072 161.173 443.534 161.512 443.011C161.844 442.466 162.457 442.074 163.349 441.835C164.029 441.653 164.672 441.629 165.278 441.763C165.877 441.875 166.439 442.101 166.962 442.439C167.501 442.75 167.991 443.132 168.431 443.583L171.472 440.65C170.879 439.966 170.135 439.356 169.24 438.822C168.36 438.26 167.337 437.885 166.17 437.696C165.019 437.481 163.731 437.564 162.307 437.945C160.925 438.316 159.74 438.907 158.75 439.719C157.776 440.504 157.084 441.452 156.676 442.564C156.283 443.649 156.258 444.829 156.599 446.104C156.884 447.167 157.331 448.027 157.94 448.684C158.543 449.319 159.224 449.82 159.983 450.187C160.736 450.532 161.498 450.783 162.269 450.941C163.056 451.072 163.741 451.162 164.324 451.21C165.425 451.325 166.362 451.462 167.133 451.62C167.92 451.75 168.54 451.983 168.994 452.317C169.469 452.645 169.801 453.16 169.989 453.861C170.205 454.669 170.089 455.384 169.641 456.005C169.192 456.626 168.511 457.06 167.597 457.304C166.81 457.515 166.032 457.542 165.26 457.384C164.489 457.226 163.734 456.916 162.995 456.453C162.277 455.985 161.573 455.399 160.883 454.695Z" fill="black" fill-opacity="0.1"/>
<path d="M172.985 439.971L178.979 438.365L183.857 456.57L188.416 455.348L183.538 437.143L189.564 435.529L188.462 431.416L171.883 435.858L172.985 439.971Z" fill="black" fill-opacity="0.1"/>
<path d="M195.993 441.358C195.612 439.934 195.57 438.589 195.869 437.324C196.168 436.06 196.753 434.969 197.624 434.052C198.494 433.136 199.621 432.492 201.002 432.122C202.405 431.746 203.713 431.737 204.925 432.096C206.137 432.455 207.179 433.11 208.049 434.061C208.919 435.013 209.544 436.2 209.926 437.624C210.308 439.049 210.349 440.393 210.05 441.658C209.772 442.917 209.198 444.005 208.327 444.921C207.457 445.838 206.331 446.482 204.949 446.852C203.567 447.222 202.27 447.228 201.058 446.869C199.846 446.511 198.794 445.858 197.903 444.913C197.011 443.967 196.375 442.782 195.993 441.358ZM191.179 442.648C191.629 444.327 192.334 445.812 193.296 447.104C194.251 448.374 195.403 449.398 196.75 450.176C198.098 450.954 199.563 451.45 201.147 451.664C202.746 451.85 204.406 451.713 206.128 451.252C207.85 450.79 209.346 450.082 210.616 449.126C211.902 448.144 212.923 446.982 213.68 445.64C214.458 444.292 214.943 442.83 215.135 441.252C215.343 439.647 215.222 438.005 214.772 436.326C214.317 434.626 213.603 433.154 212.632 431.91C211.677 430.64 210.517 429.629 209.154 428.878C207.812 428.122 206.356 427.658 204.783 427.487C203.206 427.294 201.566 427.426 199.866 427.882C198.187 428.331 196.701 429.037 195.41 429.998C194.134 430.932 193.104 432.063 192.32 433.389C191.537 434.715 191.038 436.17 190.824 437.754C190.605 439.316 190.723 440.947 191.179 442.648Z" fill="black" fill-opacity="0.1"/>
<path d="M215.307 424.223L221.287 446.54L225.846 445.319L219.866 423.001L215.307 424.223ZM219.114 427.337L223.546 426.15C224.757 425.825 225.788 425.845 226.637 426.21C227.481 426.553 228.048 427.267 228.339 428.351C228.624 429.414 228.489 430.315 227.936 431.056C227.383 431.797 226.5 432.329 225.289 432.654L220.857 433.841L221.891 437.699L226.322 436.512C228.087 436.039 229.508 435.35 230.587 434.446C231.687 433.536 232.425 432.462 232.799 431.222C233.167 429.962 233.158 428.609 232.771 427.164C232.378 425.697 231.709 424.52 230.766 423.634C229.822 422.748 228.646 422.186 227.238 421.948C225.852 421.705 224.276 421.819 222.512 422.292L218.08 423.479L219.114 427.337Z" fill="black" fill-opacity="0.1"/>
<path d="M326.195 382.794C323.051 383.637 321.185 386.869 322.028 390.013L329.166 416.655L329.169 416.657L329.172 416.659C329.746 418.504 331.155 419.878 332.868 420.474C332.876 420.477 332.881 420.486 332.879 420.494C332.876 420.503 332.882 420.513 332.891 420.515L349.702 425.02C352.847 425.862 356.079 423.996 356.921 420.852C357.764 417.708 355.898 414.476 352.753 413.633L340.933 410.466C340.119 410.248 339.483 409.612 339.265 408.799L333.414 386.962C332.572 383.817 329.34 381.951 326.195 382.794Z" fill="black" fill-opacity="0.1"/>
<path fill-rule="evenodd" clip-rule="evenodd" d="M299.612 352.816C296.468 353.659 294.602 356.891 295.445 360.035C296.287 363.179 299.519 365.045 302.663 364.203L312 361.701C313.258 361.364 314.551 362.11 314.888 363.368L315.647 366.199C315.957 367.357 315.345 368.558 314.249 369.044C292.352 378.76 280.169 403.229 286.564 427.097C293.642 453.509 320.79 469.184 347.203 462.106C373.615 455.029 389.29 427.88 382.213 401.468C375.858 377.751 353.32 362.693 329.663 364.989C328.478 365.104 327.361 364.371 327.053 363.221L326.275 360.317C325.938 359.059 326.684 357.766 327.942 357.429L336.823 355.05C339.968 354.207 341.834 350.975 340.991 347.831C340.149 344.686 336.917 342.82 333.772 343.663L299.612 352.816ZM370.826 404.519C376.218 424.643 364.276 445.328 344.152 450.72C324.028 456.112 303.343 444.17 297.951 424.046C292.559 403.922 304.501 383.237 324.625 377.845C344.749 372.453 365.434 384.395 370.826 404.519Z" fill="black" fill-opacity="0.1"/>
<path d="M406.729 328.996C406.055 326.48 407.548 323.895 410.063 323.221L435.114 316.509C437.63 315.834 440.215 317.327 440.889 319.843L468.959 424.6C469.633 427.116 468.14 429.701 465.625 430.375L440.574 437.088C438.058 437.762 435.473 436.269 434.799 433.754L406.729 328.996Z" fill="black" fill-opacity="0.1"/>
<path d="M468.217 312.52C467.543 310.005 469.036 307.419 471.551 306.745L496.602 300.033C499.118 299.359 501.703 300.852 502.377 303.367L530.447 408.125C531.121 410.64 529.628 413.226 527.113 413.9L502.062 420.612C499.547 421.286 496.961 419.793 496.287 417.278L468.217 312.52Z" fill="black" fill-opacity="0.1"/>
<path fill-rule="evenodd" clip-rule="evenodd" d="M615.247 269.672C614.164 269.047 612.877 268.877 611.669 269.201L568.277 280.828C567.069 281.151 566.039 281.942 565.414 283.025L542.952 321.929C542.327 323.012 542.158 324.299 542.481 325.507L554.108 368.899C554.432 370.107 555.222 371.137 556.305 371.762L595.209 394.223C596.292 394.849 597.58 395.018 598.788 394.695L642.18 383.068C643.388 382.744 644.417 381.954 645.043 380.871L667.504 341.966C668.129 340.883 668.299 339.596 667.975 338.388L656.348 294.996C656.025 293.788 655.234 292.758 654.151 292.133L615.247 269.672ZM613.582 282.322C612.499 281.697 611.212 281.528 610.004 281.851L576.045 290.95C574.837 291.274 573.807 292.064 573.181 293.147L555.603 323.594C554.978 324.677 554.808 325.964 555.132 327.172L564.231 361.131C564.555 362.339 565.345 363.369 566.428 363.995L596.875 381.573C597.958 382.198 599.245 382.368 600.453 382.044L634.412 372.945C635.62 372.621 636.65 371.831 637.275 370.748L654.854 340.301C655.479 339.218 655.648 337.931 655.325 336.723L646.225 302.764C645.902 301.556 645.111 300.526 644.028 299.901L613.582 282.322Z" fill="black" fill-opacity="0.1"/>
<path d="M570.804 344.857L568.167 348.024C568.935 348.935 569.875 349.719 570.985 350.379C572.096 351.038 573.307 351.477 574.618 351.695C575.945 351.886 577.289 351.799 578.649 351.435C579.67 351.161 580.594 350.743 581.423 350.179C582.278 349.631 583.001 348.97 583.591 348.197C584.176 347.403 584.566 346.523 584.764 345.559C584.961 344.595 584.914 343.571 584.624 342.487C584.368 341.53 583.983 340.734 583.471 340.096C582.974 339.432 582.378 338.908 581.683 338.525C581.003 338.115 580.272 337.81 579.49 337.609C578.728 337.403 577.952 337.269 577.161 337.208C575.932 337.127 574.897 337.006 574.056 336.844C573.21 336.661 572.552 336.416 572.082 336.108C571.607 335.78 571.295 335.34 571.147 334.787C570.999 334.234 571.094 333.696 571.432 333.173C571.765 332.628 572.378 332.236 573.27 331.997C573.95 331.815 574.593 331.791 575.199 331.925C575.798 332.037 576.36 332.263 576.883 332.601C577.422 332.912 577.912 333.294 578.352 333.745L581.393 330.812C580.8 330.128 580.056 329.518 579.16 328.984C578.281 328.422 577.258 328.047 576.091 327.858C574.94 327.643 573.652 327.726 572.228 328.107C570.846 328.478 569.661 329.069 568.671 329.881C567.697 330.666 567.005 331.614 566.597 332.726C566.204 333.811 566.179 334.991 566.52 336.266C566.805 337.329 567.252 338.189 567.861 338.846C568.464 339.481 569.145 339.982 569.904 340.349C570.657 340.694 571.419 340.945 572.19 341.103C572.977 341.234 573.662 341.324 574.245 341.372C575.346 341.487 576.283 341.624 577.054 341.782C577.841 341.912 578.461 342.145 578.915 342.479C579.39 342.807 579.722 343.322 579.91 344.023C580.126 344.831 580.01 345.546 579.562 346.167C579.113 346.788 578.432 347.222 577.518 347.466C576.731 347.677 575.952 347.704 575.181 347.546C574.41 347.388 573.655 347.078 572.916 346.615C572.198 346.147 571.494 345.561 570.804 344.857Z" fill="black" fill-opacity="0.1"/>
<path d="M582.906 330.133L588.9 328.527L593.778 346.732L598.337 345.51L593.459 327.305L599.485 325.691L598.383 321.578L581.804 326.02L582.906 330.133Z" fill="black" fill-opacity="0.1"/>
<path d="M605.914 331.52C605.533 330.096 605.491 328.751 605.79 327.486C606.089 326.222 606.674 325.131 607.545 324.214C608.415 323.298 609.541 322.654 610.923 322.284C612.326 321.908 613.633 321.899 614.846 322.258C616.058 322.617 617.099 323.272 617.969 324.223C618.84 325.175 619.465 326.362 619.847 327.787C620.229 329.211 620.27 330.555 619.971 331.82C619.693 333.079 619.119 334.167 618.248 335.083C617.378 336 616.251 336.644 614.87 337.014C613.488 337.384 612.191 337.39 610.979 337.031C609.767 336.673 608.715 336.02 607.823 335.075C606.932 334.129 606.296 332.944 605.914 331.52ZM601.1 332.81C601.55 334.489 602.255 335.974 603.217 337.266C604.172 338.536 605.323 339.56 606.671 340.338C608.018 341.116 609.484 341.612 611.068 341.826C612.667 342.012 614.327 341.875 616.049 341.414C617.771 340.952 619.267 340.244 620.537 339.288C621.823 338.306 622.844 337.144 623.601 335.802C624.379 334.454 624.864 332.992 625.056 331.414C625.264 329.809 625.143 328.167 624.693 326.488C624.237 324.788 623.524 323.316 622.553 322.072C621.598 320.802 620.438 319.791 619.075 319.04C617.733 318.284 616.276 317.82 614.704 317.649C613.126 317.456 611.487 317.588 609.787 318.044C608.108 318.493 606.622 319.199 605.331 320.16C604.055 321.094 603.025 322.225 602.241 323.551C601.458 324.877 600.959 326.332 600.745 327.916C600.526 329.478 600.644 331.109 601.1 332.81Z" fill="black" fill-opacity="0.1"/>
<path d="M625.228 314.385L631.208 336.703L635.767 335.481L629.787 313.163L625.228 314.385ZM629.035 317.499L633.467 316.312C634.678 315.987 635.709 316.007 636.558 316.372C637.402 316.715 637.969 317.429 638.26 318.513C638.545 319.576 638.41 320.477 637.857 321.218C637.304 321.959 636.421 322.491 635.21 322.816L630.778 324.003L631.812 327.861L636.243 326.674C638.007 326.201 639.429 325.512 640.508 324.608C641.608 323.698 642.346 322.624 642.72 321.384C643.088 320.124 643.079 318.771 642.691 317.325C642.298 315.859 641.63 314.682 640.686 313.796C639.743 312.91 638.567 312.348 637.159 312.11C635.773 311.867 634.197 311.981 632.433 312.454L628.001 313.641L629.035 317.499Z" fill="black" fill-opacity="0.1"/>
<path d="M736.116 272.956C732.972 273.799 731.106 277.031 731.948 280.175L739.087 306.817L739.09 306.819L739.093 306.821C739.667 308.666 741.076 310.04 742.789 310.636C742.797 310.639 742.802 310.648 742.8 310.656C742.797 310.665 742.803 310.675 742.812 310.677L759.623 315.182C762.768 316.024 766 314.158 766.842 311.014C767.685 307.87 765.819 304.638 762.674 303.795L750.853 300.628C750.04 300.41 749.404 299.774 749.186 298.961L743.335 277.124C742.493 273.979 739.261 272.114 736.116 272.956Z" fill="black" fill-opacity="0.1"/>
<path fill-rule="evenodd" clip-rule="evenodd" d="M709.533 242.978C706.389 243.821 704.523 247.053 705.365 250.197C706.208 253.341 709.44 255.207 712.584 254.365L721.921 251.863C723.179 251.526 724.472 252.272 724.809 253.53L725.567 256.361C725.878 257.519 725.266 258.72 724.17 259.206C702.273 268.922 690.09 293.391 696.485 317.259C703.563 343.671 730.711 359.346 757.124 352.268C783.536 345.191 799.211 318.042 792.134 291.63C785.779 267.913 763.241 252.855 739.584 255.151C738.399 255.266 737.282 254.533 736.974 253.383L736.196 250.479C735.859 249.221 736.605 247.928 737.863 247.591L746.745 245.212C749.889 244.369 751.755 241.137 750.912 237.993C750.07 234.848 746.838 232.982 743.693 233.825L709.533 242.978ZM780.747 294.681C786.139 314.805 774.197 335.49 754.073 340.882C733.949 346.274 713.264 334.332 707.872 314.208C702.48 294.084 714.422 273.399 734.546 268.007C754.67 262.615 775.355 274.557 780.747 294.681Z" fill="black" fill-opacity="0.1"/>
<path d="M816.65 219.158C815.976 216.642 817.469 214.057 819.984 213.383L845.035 206.671C847.55 205.997 850.136 207.489 850.81 210.005L878.88 314.762C879.554 317.278 878.061 319.863 875.545 320.537L850.495 327.25C847.979 327.924 845.394 326.431 844.72 323.916L816.65 219.158Z" fill="black" fill-opacity="0.1"/>
<path d="M878.138 202.682C877.464 200.167 878.957 197.581 881.472 196.907L906.523 190.195C909.039 189.521 911.624 191.014 912.298 193.529L940.368 298.287C941.042 300.802 939.549 303.388 937.034 304.062L911.983 310.774C909.467 311.448 906.882 309.955 906.208 307.44L878.138 202.682Z" fill="black" fill-opacity="0.1"/>
<path fill-rule="evenodd" clip-rule="evenodd" d="M105.299 552.763C104.216 552.137 102.928 551.968 101.72 552.292L58.3285 563.919C57.1205 564.242 56.0906 565.032 55.4653 566.116L33.0039 605.02C32.3786 606.103 32.2092 607.39 32.5329 608.598L44.1597 651.99C44.4834 653.198 45.2737 654.228 46.3567 654.853L85.2609 677.314C86.344 677.94 87.6311 678.109 88.839 677.785L132.231 666.159C133.439 665.835 134.469 665.045 135.094 663.962L157.556 625.057C158.181 623.974 158.35 622.687 158.027 621.479L146.4 578.087C146.076 576.879 145.286 575.849 144.203 575.224L105.299 552.763ZM103.633 565.413C102.55 564.788 101.263 564.618 100.055 564.942L66.0961 574.041C64.8881 574.365 63.8581 575.155 63.2328 576.238L45.6544 606.685C45.0291 607.768 44.8597 609.055 45.1833 610.263L54.2826 644.222C54.6063 645.43 55.3966 646.46 56.4796 647.085L86.9264 664.664C88.0094 665.289 89.2965 665.459 90.5045 665.135L124.463 656.036C125.671 655.712 126.701 654.922 127.327 653.839L144.905 623.392C145.53 622.309 145.7 621.022 145.376 619.814L136.277 585.855C135.953 584.647 135.163 583.617 134.08 582.992L103.633 565.413Z" fill="black" fill-opacity="0.1"/>
<path d="M115.279 597.476L121.259 619.793L125.818 618.572L119.838 596.254L115.279 597.476ZM119.087 600.59L123.518 599.403C124.73 599.078 125.76 599.098 126.61 599.463C127.454 599.806 128.021 600.52 128.311 601.604C128.596 602.667 128.462 603.568 127.908 604.309C127.355 605.05 126.473 605.582 125.261 605.907L120.829 607.094L121.863 610.952L126.295 609.765C128.059 609.292 129.48 608.603 130.559 607.699C131.66 606.789 132.397 605.715 132.771 604.475C133.14 603.215 133.13 601.862 132.743 600.416C132.35 598.95 131.682 597.773 130.738 596.887C129.794 596.001 128.618 595.439 127.211 595.201C125.824 594.958 124.249 595.072 122.485 595.545L118.053 596.732L119.087 600.59Z" fill="black" fill-opacity="0.1"/>
<path d="M226.168 556.047C223.023 556.889 221.157 560.121 222 563.266L229.139 589.908L229.142 589.91L229.145 589.912C229.718 591.757 231.128 593.131 232.84 593.727C232.849 593.73 232.853 593.739 232.851 593.747C232.849 593.756 232.854 593.766 232.863 593.768L249.675 598.273C252.819 599.115 256.051 597.249 256.893 594.105C257.736 590.961 255.87 587.729 252.726 586.886L240.905 583.719C240.091 583.501 239.456 582.865 239.238 582.052L233.387 560.215C232.544 557.07 229.312 555.204 226.168 556.047Z" fill="black" fill-opacity="0.1"/>
<path fill-rule="evenodd" clip-rule="evenodd" d="M199.585 526.069C196.44 526.912 194.574 530.144 195.417 533.288C196.259 536.432 199.491 538.298 202.636 537.456L211.973 534.954C213.231 534.617 214.523 535.363 214.86 536.621L215.619 539.452C215.929 540.61 215.317 541.811 214.221 542.297C192.325 552.013 180.141 576.482 186.537 600.35C193.614 626.762 220.763 642.437 247.175 635.359C273.588 628.282 289.262 601.133 282.185 574.721C275.83 551.004 253.292 535.946 229.636 538.242C228.451 538.357 227.333 537.624 227.025 536.474L226.247 533.57C225.91 532.312 226.657 531.019 227.914 530.682L236.796 528.303C239.94 527.46 241.806 524.228 240.964 521.084C240.121 517.939 236.889 516.073 233.745 516.916L199.585 526.069ZM270.798 577.772C276.19 597.896 264.248 618.58 244.124 623.973C224 629.365 203.316 617.422 197.923 597.299C192.531 577.175 204.474 556.49 224.598 551.098C244.721 545.706 265.406 557.648 270.798 577.772Z" fill="black" fill-opacity="0.1"/>
<path d="M306.701 502.249C306.027 499.733 307.52 497.148 310.036 496.474L335.086 489.761C337.602 489.087 340.187 490.58 340.862 493.096L368.931 597.853C369.605 600.369 368.112 602.954 365.597 603.628L340.546 610.341C338.031 611.015 335.445 609.522 334.771 607.006L306.701 502.249Z" fill="black" fill-opacity="0.1"/>
<path d="M368.19 485.773C367.516 483.258 369.008 480.672 371.524 479.998L396.575 473.286C399.09 472.612 401.676 474.105 402.35 476.62L430.419 581.378C431.093 583.893 429.601 586.479 427.085 587.153L402.034 593.865C399.519 594.539 396.933 593.046 396.259 590.531L368.19 485.773Z" fill="black" fill-opacity="0.1"/>
<path fill-rule="evenodd" clip-rule="evenodd" d="M515.219 442.925C514.136 442.299 512.849 442.13 511.641 442.454L468.249 454.081C467.041 454.404 466.012 455.194 465.386 456.278L442.925 495.182C442.3 496.265 442.13 497.552 442.454 498.76L454.081 542.152C454.404 543.36 455.195 544.39 456.278 545.015L495.182 567.476C496.265 568.102 497.552 568.271 498.76 567.947L542.152 556.321C543.36 555.997 544.39 555.207 545.015 554.124L567.476 515.219C568.102 514.136 568.271 512.849 567.948 511.641L556.321 468.249C555.997 467.041 555.207 466.011 554.124 465.386L515.219 442.925ZM513.554 455.575C512.471 454.95 511.184 454.781 509.976 455.104L476.017 464.203C474.809 464.527 473.779 465.317 473.154 466.4L455.575 496.847C454.95 497.93 454.781 499.217 455.104 500.425L464.204 534.384C464.527 535.592 465.318 536.622 466.401 537.248L496.847 554.826C497.93 555.451 499.217 555.621 500.425 555.297L534.384 546.198C535.592 545.874 536.622 545.084 537.248 544.001L554.826 513.554C555.451 512.471 555.621 511.184 555.297 509.976L546.198 476.017C545.874 474.809 545.084 473.779 544.001 473.154L513.554 455.575Z" fill="black" fill-opacity="0.1"/>
<path d="M470.777 518.11L468.14 521.277C468.908 522.188 469.847 522.972 470.958 523.632C472.068 524.291 473.279 524.73 474.591 524.948C475.918 525.139 477.261 525.052 478.622 524.688C479.642 524.414 480.566 523.996 481.395 523.432C482.25 522.884 482.973 522.223 483.563 521.45C484.148 520.656 484.539 519.776 484.736 518.812C484.933 517.848 484.887 516.824 484.596 515.74C484.34 514.783 483.956 513.987 483.443 513.349C482.946 512.685 482.35 512.161 481.655 511.778C480.976 511.368 480.245 511.063 479.462 510.862C478.701 510.656 477.924 510.522 477.133 510.461C475.904 510.38 474.869 510.259 474.029 510.097C473.182 509.914 472.524 509.668 472.055 509.361C471.579 509.033 471.268 508.593 471.12 508.04C470.972 507.487 471.067 506.949 471.405 506.426C471.737 505.881 472.35 505.489 473.243 505.25C473.923 505.068 474.566 505.044 475.171 505.178C475.771 505.29 476.332 505.516 476.856 505.854C477.395 506.165 477.884 506.546 478.324 506.998L481.365 504.065C480.772 503.381 480.028 502.771 479.133 502.237C478.253 501.675 477.23 501.3 476.063 501.111C474.912 500.896 473.624 500.979 472.2 501.36C470.819 501.731 469.633 502.322 468.643 503.134C467.669 503.919 466.978 504.867 466.569 505.979C466.177 507.064 466.151 508.244 466.493 509.519C466.778 510.582 467.224 511.442 467.833 512.099C468.436 512.734 469.117 513.235 469.876 513.602C470.629 513.947 471.391 514.198 472.163 514.356C472.95 514.487 473.634 514.577 474.217 514.625C475.318 514.74 476.255 514.877 477.026 515.035C477.813 515.165 478.433 515.398 478.887 515.732C479.363 516.06 479.694 516.575 479.882 517.276C480.099 518.084 479.982 518.799 479.534 519.42C479.085 520.041 478.404 520.475 477.49 520.719C476.704 520.93 475.925 520.957 475.154 520.799C474.382 520.641 473.627 520.331 472.888 519.868C472.17 519.4 471.466 518.814 470.777 518.11Z" fill="black" fill-opacity="0.1"/>
<path d="M482.878 503.386L488.872 501.78L493.75 519.985L498.309 518.763L493.431 500.558L499.457 498.944L498.355 494.831L481.776 499.273L482.878 503.386Z" fill="black" fill-opacity="0.1"/>
<path d="M505.887 504.773C505.505 503.349 505.464 502.004 505.763 500.739C506.062 499.475 506.646 498.384 507.517 497.467C508.388 496.551 509.514 495.907 510.895 495.537C512.298 495.161 513.606 495.152 514.818 495.511C516.031 495.87 517.072 496.525 517.942 497.476C518.812 498.428 519.438 499.615 519.819 501.039C520.201 502.464 520.242 503.808 519.943 505.073C519.665 506.332 519.091 507.42 518.221 508.336C517.35 509.253 516.224 509.897 514.842 510.267C513.461 510.637 512.164 510.643 510.951 510.284C509.739 509.926 508.687 509.273 507.796 508.328C506.905 507.382 506.268 506.197 505.887 504.773ZM501.072 506.063C501.522 507.742 502.228 509.227 503.189 510.519C504.144 511.789 505.296 512.813 506.643 513.591C507.991 514.369 509.456 514.865 511.04 515.079C512.639 515.265 514.3 515.128 516.021 514.667C517.743 514.205 519.239 513.497 520.509 512.541C521.795 511.559 522.816 510.397 523.573 509.055C524.351 507.707 524.836 506.245 525.029 504.667C525.236 503.062 525.115 501.42 524.665 499.741C524.21 498.04 523.496 496.569 522.525 495.325C521.57 494.055 520.411 493.044 519.048 492.293C517.706 491.536 516.249 491.073 514.677 490.902C513.099 490.709 511.46 490.841 509.759 491.297C508.08 491.746 506.595 492.452 505.303 493.413C504.027 494.347 502.997 495.478 502.214 496.804C501.43 498.13 500.931 499.585 500.718 501.169C500.498 502.731 500.617 504.362 501.072 506.063Z" fill="black" fill-opacity="0.1"/>
<path d="M525.2 487.638L531.18 509.956L535.739 508.734L529.759 486.416L525.2 487.638ZM529.007 490.752L533.439 489.565C534.651 489.24 535.681 489.26 536.531 489.625C537.374 489.968 537.942 490.682 538.232 491.766C538.517 492.829 538.383 493.73 537.829 494.471C537.276 495.212 536.393 495.744 535.182 496.069L530.75 497.256L531.784 501.114L536.216 499.927C537.98 499.454 539.401 498.765 540.48 497.861C541.581 496.951 542.318 495.877 542.692 494.637C543.06 493.377 543.051 492.024 542.664 490.578C542.271 489.112 541.602 487.935 540.659 487.049C539.715 486.163 538.539 485.601 537.132 485.363C535.745 485.12 534.17 485.234 532.405 485.707L527.974 486.894L529.007 490.752Z" fill="black" fill-opacity="0.1"/>
<path d="M636.089 446.209C632.944 447.052 631.078 450.284 631.921 453.428L639.06 480.07L639.063 480.072L639.065 480.074C639.639 481.919 641.049 483.293 642.761 483.889C642.77 483.892 642.774 483.901 642.772 483.909C642.77 483.918 642.775 483.928 642.784 483.93L659.596 488.435C662.74 489.277 665.972 487.411 666.814 484.267C667.657 481.123 665.791 477.891 662.647 477.048L650.826 473.881C650.012 473.663 649.377 473.027 649.159 472.214L643.308 450.377C642.465 447.232 639.233 445.366 636.089 446.209Z" fill="black" fill-opacity="0.1"/>
<path fill-rule="evenodd" clip-rule="evenodd" d="M609.506 416.231C606.361 417.074 604.495 420.306 605.338 423.45C606.18 426.594 609.412 428.46 612.557 427.618L621.894 425.116C623.152 424.779 624.444 425.525 624.781 426.783L625.54 429.614C625.85 430.772 625.238 431.973 624.142 432.459C602.246 442.175 590.062 466.644 596.458 490.512C603.535 516.924 630.684 532.599 657.096 525.521C683.509 518.444 699.183 491.295 692.106 464.883C685.751 441.166 663.213 426.108 639.556 428.404C638.372 428.519 637.254 427.786 636.946 426.636L636.168 423.732C635.831 422.474 636.577 421.181 637.835 420.844L646.717 418.465C649.861 417.622 651.727 414.39 650.885 411.246C650.042 408.101 646.81 406.235 643.666 407.078L609.506 416.231ZM680.719 467.934C686.111 488.058 674.169 508.743 654.045 514.135C633.921 519.527 613.237 507.584 607.844 487.461C602.452 467.337 614.395 446.652 634.518 441.26C654.642 435.868 675.327 447.81 680.719 467.934Z" fill="black" fill-opacity="0.1"/>
<path d="M716.622 392.411C715.948 389.895 717.441 387.31 719.957 386.636L745.007 379.923C747.523 379.249 750.108 380.742 750.782 383.258L778.852 488.015C779.526 490.531 778.033 493.116 775.518 493.79L750.467 500.503C747.952 501.177 745.366 499.684 744.692 497.169L716.622 392.411Z" fill="black" fill-opacity="0.1"/>
<path d="M778.11 375.935C777.436 373.42 778.929 370.834 781.445 370.16L806.495 363.448C809.011 362.774 811.597 364.267 812.271 366.782L840.34 471.54C841.014 474.055 839.521 476.641 837.006 477.315L811.955 484.027C809.44 484.701 806.854 483.208 806.18 480.693L778.11 375.935Z" fill="black" fill-opacity="0.1"/>
<path fill-rule="evenodd" clip-rule="evenodd" d="M925.14 333.087C924.057 332.462 922.77 332.292 921.562 332.616L878.17 344.243C876.962 344.566 875.932 345.357 875.307 346.44L852.846 385.344C852.221 386.427 852.051 387.714 852.375 388.922L864.002 432.314C864.325 433.522 865.116 434.552 866.199 435.177L905.103 457.638C906.186 458.264 907.473 458.433 908.681 458.109L952.073 446.483C953.281 446.159 954.311 445.369 954.936 444.286L977.397 405.381C978.023 404.298 978.192 403.011 977.869 401.803L966.242 358.411C965.918 357.203 965.128 356.173 964.045 355.548L925.14 333.087ZM923.475 345.737C922.392 345.112 921.105 344.943 919.897 345.266L885.938 354.365C884.73 354.689 883.7 355.479 883.075 356.562L865.496 387.009C864.871 388.092 864.701 389.379 865.025 390.587L874.124 424.546C874.448 425.754 875.238 426.784 876.321 427.41L906.768 444.988C907.851 445.613 909.138 445.783 910.346 445.459L944.305 436.36C945.513 436.036 946.543 435.246 947.168 434.163L964.747 403.716C965.372 402.633 965.542 401.346 965.218 400.138L956.119 366.179C955.795 364.971 955.005 363.941 953.922 363.316L923.475 345.737Z" fill="black" fill-opacity="0.1"/>
<path d="M880.698 408.272L878.061 411.439C878.829 412.35 879.768 413.134 880.879 413.794C881.989 414.453 883.2 414.891 884.512 415.11C885.839 415.301 887.182 415.214 888.543 414.85C889.563 414.576 890.487 414.158 891.316 413.594C892.171 413.046 892.894 412.385 893.484 411.612C894.069 410.818 894.46 409.938 894.657 408.974C894.854 408.01 894.808 406.986 894.517 405.902C894.261 404.945 893.876 404.149 893.364 403.511C892.867 402.847 892.271 402.323 891.576 401.94C890.897 401.53 890.166 401.225 889.383 401.024C888.622 400.818 887.845 400.684 887.054 400.623C885.825 400.542 884.79 400.421 883.95 400.259C883.103 400.076 882.445 399.831 881.976 399.524C881.5 399.195 881.189 398.755 881.041 398.202C880.893 397.649 880.988 397.111 881.326 396.588C881.658 396.043 882.271 395.651 883.163 395.412C883.844 395.23 884.486 395.206 885.092 395.34C885.692 395.452 886.253 395.678 886.777 396.016C887.316 396.327 887.805 396.708 888.245 397.16L891.286 394.227C890.693 393.543 889.949 392.933 889.054 392.399C888.174 391.837 887.151 391.462 885.984 391.273C884.833 391.058 883.545 391.141 882.121 391.522C880.74 391.893 879.554 392.484 878.564 393.296C877.59 394.081 876.899 395.029 876.49 396.141C876.097 397.226 876.072 398.406 876.414 399.681C876.698 400.744 877.145 401.604 877.754 402.261C878.357 402.896 879.038 403.397 879.797 403.764C880.55 404.109 881.312 404.36 882.084 404.518C882.87 404.649 883.555 404.739 884.138 404.787C885.239 404.902 886.176 405.039 886.947 405.197C887.734 405.327 888.354 405.56 888.808 405.894C889.283 406.222 889.615 406.737 889.803 407.438C890.02 408.246 889.904 408.961 889.455 409.582C889.006 410.203 888.325 410.637 887.411 410.881C886.625 411.092 885.846 411.119 885.074 410.961C884.303 410.803 883.548 410.493 882.809 410.03C882.091 409.562 881.387 408.976 880.698 408.272Z" fill="black" fill-opacity="0.1"/>
<path d="M892.799 393.548L898.793 391.942L903.671 410.147L908.23 408.925L903.352 390.72L909.378 389.106L908.276 384.993L891.697 389.435L892.799 393.548Z" fill="black" fill-opacity="0.1"/>
<path fill-rule="evenodd" clip-rule="evenodd" d="M509.478 589.484C506.334 590.327 504.468 593.559 505.31 596.703C506.153 599.847 509.385 601.713 512.529 600.871L521.866 598.369C523.124 598.032 524.417 598.778 524.754 600.036L525.512 602.867C525.822 604.025 525.211 605.226 524.115 605.712C502.218 615.428 490.035 639.897 496.43 663.765C503.507 690.177 530.656 705.852 557.069 698.774C583.481 691.697 599.156 664.548 592.078 638.136C585.724 614.419 563.186 599.361 539.529 601.657C538.344 601.772 537.227 601.039 536.919 599.889L536.14 596.985C535.803 595.727 536.55 594.434 537.808 594.097L546.689 591.718C549.834 590.875 551.699 587.643 550.857 584.499C550.014 581.354 546.782 579.488 543.638 580.331L509.478 589.484ZM580.692 641.187C586.084 661.311 574.141 681.995 554.018 687.388C533.894 692.78 513.209 680.837 507.817 660.714C502.425 640.59 514.367 619.905 534.491 614.513C554.615 609.121 575.299 621.063 580.692 641.187Z" fill="black" fill-opacity="0.1"/>
<path d="M616.595 565.664C615.921 563.148 617.413 560.563 619.929 559.889L644.98 553.176C647.495 552.502 650.081 553.995 650.755 556.511L678.824 661.268C679.498 663.784 678.006 666.369 675.49 667.043L650.439 673.756C647.924 674.43 645.338 672.937 644.664 670.421L616.595 565.664Z" fill="black" fill-opacity="0.1"/>
<path d="M678.083 549.188C677.409 546.673 678.902 544.087 681.417 543.413L706.468 536.701C708.983 536.027 711.569 537.52 712.243 540.035L740.313 644.793C740.987 647.308 739.494 649.894 736.978 650.568L711.928 657.28C709.412 657.954 706.827 656.461 706.153 653.946L678.083 549.188Z" fill="black" fill-opacity="0.1"/>
<path fill-rule="evenodd" clip-rule="evenodd" d="M825.113 506.34C824.03 505.714 822.743 505.545 821.535 505.869L778.143 517.496C776.935 517.819 775.905 518.609 775.279 519.693L752.818 558.597C752.193 559.68 752.023 560.967 752.347 562.175L763.974 605.567C764.298 606.775 765.088 607.805 766.171 608.43L805.075 630.891C806.158 631.517 807.445 631.686 808.653 631.362L852.045 619.736C853.253 619.412 854.283 618.622 854.908 617.539L877.37 578.634C877.995 577.551 878.164 576.264 877.841 575.056L866.214 531.664C865.89 530.456 865.1 529.426 864.017 528.801L825.113 506.34ZM823.447 518.99C822.364 518.365 821.077 518.195 819.869 518.519L785.91 527.618C784.702 527.942 783.672 528.732 783.047 529.815L765.469 560.262C764.843 561.345 764.674 562.632 764.998 563.84L774.097 597.799C774.421 599.007 775.211 600.037 776.294 600.662L806.741 618.241C807.824 618.866 809.111 619.036 810.319 618.712L844.278 609.613C845.486 609.289 846.515 608.499 847.141 607.416L864.719 576.969C865.345 575.886 865.514 574.599 865.19 573.391L856.091 539.432C855.767 538.224 854.977 537.194 853.894 536.569L823.447 518.99Z" fill="black" fill-opacity="0.1"/>
<path d="M780.67 581.525L778.033 584.692C778.801 585.603 779.74 586.387 780.851 587.047C781.962 587.706 783.173 588.144 784.484 588.363C785.811 588.554 787.155 588.467 788.515 588.103C789.535 587.829 790.46 587.411 791.288 586.847C792.144 586.299 792.867 585.638 793.457 584.865C794.041 584.07 794.432 583.191 794.629 582.227C794.827 581.263 794.78 580.239 794.49 579.155C794.233 578.198 793.849 577.402 793.336 576.764C792.84 576.1 792.244 575.576 791.549 575.193C790.869 574.783 790.138 574.477 789.355 574.277C788.594 574.071 787.818 573.937 787.027 573.876C785.798 573.795 784.763 573.674 783.922 573.512C783.076 573.329 782.418 573.083 781.948 572.776C781.473 572.448 781.161 572.008 781.013 571.455C780.865 570.902 780.96 570.364 781.298 569.841C781.631 569.296 782.243 568.904 783.136 568.665C783.816 568.483 784.459 568.459 785.064 568.593C785.664 568.705 786.226 568.931 786.749 569.269C787.288 569.58 787.778 569.961 788.217 570.413L791.259 567.48C790.665 566.796 789.921 566.186 789.026 565.652C788.147 565.09 787.123 564.715 785.957 564.526C784.805 564.311 783.518 564.394 782.094 564.775C780.712 565.146 779.526 565.737 778.536 566.549C777.562 567.334 776.871 568.282 776.463 569.394C776.07 570.479 776.044 571.659 776.386 572.934C776.671 573.997 777.118 574.857 777.727 575.514C778.33 576.149 779.011 576.65 779.769 577.017C780.523 577.361 781.285 577.613 782.056 577.771C782.843 577.902 783.528 577.992 784.11 578.04C785.212 578.155 786.148 578.292 786.919 578.449C787.706 578.58 788.327 578.813 788.781 579.147C789.256 579.475 789.588 579.99 789.775 580.691C789.992 581.499 789.876 582.214 789.427 582.835C788.979 583.456 788.297 583.889 787.383 584.134C786.597 584.345 785.818 584.372 785.047 584.214C784.275 584.056 783.52 583.746 782.781 583.283C782.063 582.815 781.36 582.229 780.67 581.525Z" fill="black" fill-opacity="0.1"/>
<path d="M792.771 566.801L798.765 565.195L803.643 583.4L808.202 582.178L803.324 563.973L809.35 562.358L808.248 558.246L791.669 562.688L792.771 566.801Z" fill="black" fill-opacity="0.1"/>
<path d="M815.78 568.188C815.398 566.764 815.357 565.419 815.656 564.154C815.955 562.89 816.54 561.799 817.41 560.882C818.281 559.966 819.407 559.322 820.789 558.952C822.192 558.576 823.499 558.567 824.711 558.926C825.924 559.285 826.965 559.94 827.835 560.891C828.705 561.843 829.331 563.03 829.713 564.454C830.094 565.879 830.135 567.223 829.837 568.488C829.559 569.747 828.984 570.835 828.114 571.751C827.243 572.668 826.117 573.312 824.736 573.682C823.354 574.052 822.057 574.058 820.845 573.699C819.632 573.341 818.58 572.688 817.689 571.743C816.798 570.797 816.161 569.612 815.78 568.188ZM810.966 569.478C811.416 571.157 812.121 572.642 813.082 573.934C814.038 575.204 815.189 576.228 816.537 577.006C817.884 577.784 819.35 578.28 820.933 578.494C822.532 578.68 824.193 578.543 825.914 578.082C827.636 577.62 829.132 576.912 830.402 575.956C831.688 574.974 832.71 573.812 833.466 572.47C834.244 571.122 834.73 569.66 834.922 568.082C835.13 566.477 835.009 564.835 834.559 563.156C834.103 561.455 833.39 559.984 832.419 558.74C831.463 557.47 830.304 556.459 828.941 555.708C827.599 554.951 826.142 554.488 824.57 554.317C822.992 554.124 821.353 554.256 819.652 554.711C817.973 555.161 816.488 555.867 815.196 556.828C813.92 557.762 812.891 558.893 812.107 560.219C811.323 561.545 810.825 563 810.611 564.584C810.392 566.146 810.51 567.777 810.966 569.478Z" fill="black" fill-opacity="0.1"/>
<path d="M835.093 551.053L841.073 573.37L845.633 572.149L839.652 549.831L835.093 551.053ZM838.901 554.167L843.332 552.98C844.544 552.655 845.575 552.675 846.424 553.04C847.268 553.383 847.835 554.097 848.125 555.181C848.41 556.244 848.276 557.145 847.722 557.886C847.169 558.627 846.287 559.159 845.075 559.484L840.643 560.671L841.677 564.529L846.109 563.341C847.873 562.869 849.295 562.18 850.374 561.276C851.474 560.366 852.211 559.292 852.585 558.052C852.954 556.792 852.944 555.439 852.557 553.993C852.164 552.527 851.496 551.35 850.552 550.464C849.608 549.578 848.433 549.016 847.025 548.778C845.638 548.535 844.063 548.649 842.299 549.122L837.867 550.309L838.901 554.167Z" fill="black" fill-opacity="0.1"/>
<path d="M-51.5417 12.4373C-52.2157 9.92183 -50.7229 7.33624 -48.2074 6.66222L-23.1567 -0.050102C-20.6413 -0.724122 -18.0557 0.768663 -17.3816 3.28414L10.6881 108.042C11.3621 110.557 9.86929 113.143 7.35381 113.817L-17.6969 120.529C-20.2124 121.203 -22.798 119.71 -23.472 117.195L-51.5417 12.4373Z" fill="black" fill-opacity="0.1"/>
<path fill-rule="evenodd" clip-rule="evenodd" d="M95.4882 -30.4111C94.4052 -31.0364 93.1181 -31.2058 91.9101 -30.8822L48.5181 -19.2553C47.3102 -18.9316 46.2803 -18.1414 45.655 -17.0583L23.1936 21.8459C22.5683 22.9289 22.3988 24.216 22.7225 25.424L34.3494 68.816C34.673 70.024 35.4633 71.0539 36.5464 71.6792L75.4506 94.1405C76.5336 94.7658 77.8207 94.9353 79.0287 94.6116L122.421 82.9847C123.629 82.661 124.659 81.8708 125.284 80.7877L147.745 41.8835C148.371 40.8005 148.54 39.5134 148.216 38.3054L136.589 -5.08659C136.266 -6.29456 135.475 -7.32446 134.392 -7.94976L95.4882 -30.4111ZM93.8228 -17.7606C92.7397 -18.3859 91.4527 -18.5554 90.2447 -18.2317L56.2857 -9.13241C55.0777 -8.80874 54.0478 -8.01846 53.4225 -6.93542L35.8441 23.5114C35.2188 24.5944 35.0493 25.8814 35.373 27.0894L44.4723 61.0484C44.796 62.2564 45.5863 63.2863 46.6693 63.9116L77.116 81.4901C78.1991 82.1153 79.4862 82.2848 80.6941 81.9611L114.653 72.8618C115.861 72.5382 116.891 71.7479 117.516 70.6648L135.095 40.2181C135.72 39.135 135.889 37.8479 135.566 36.64L126.467 2.681C126.143 1.47302 125.353 0.44312 124.27 -0.182174L93.8228 -17.7606Z" fill="black" fill-opacity="0.1"/>
<path d="M51.0455 44.7743L48.4085 47.9412C49.1765 48.8517 50.1158 49.6366 51.2264 50.2958C52.3371 50.955 53.5481 51.3937 54.8595 51.6118C56.1865 51.803 57.5301 51.7163 58.8905 51.3518C59.9107 51.0785 60.8352 50.6599 61.6637 50.0962C62.5192 49.548 63.242 48.8873 63.8322 48.1141C64.4166 47.3196 64.8075 46.4403 65.0048 45.4762C65.2021 44.5121 65.1555 43.488 64.865 42.404C64.6088 41.4475 64.2244 40.6506 63.7119 40.0134C63.215 39.3492 62.619 38.8255 61.924 38.4422C61.2445 38.0319 60.5135 37.7266 59.7308 37.5263C58.9694 37.3202 58.1932 37.1865 57.4021 37.1251C56.1731 37.0443 55.1382 36.923 54.2975 36.761C53.451 36.5777 52.793 36.3326 52.3234 36.0255C51.8482 35.6973 51.5365 35.2568 51.3885 34.7042C51.2404 34.1515 51.3354 33.6135 51.6736 33.09C52.006 32.5453 52.6186 32.1534 53.5113 31.9142C54.1915 31.7319 54.8343 31.7078 55.4397 31.8417C56.0394 31.9544 56.601 32.1798 57.1245 32.518C57.6635 32.8291 58.1529 33.2106 58.5929 33.6622L61.6341 30.7287C61.0408 30.0448 60.2966 29.4354 59.4015 28.9007C58.522 28.339 57.4989 27.9639 56.3321 27.7753C55.1808 27.5599 53.8932 27.6429 52.4691 28.0245C51.0875 28.3947 49.9018 28.9858 48.9119 29.7977C47.9377 30.5828 47.2464 31.5312 46.8381 32.6429C46.4454 33.7278 46.4198 34.9079 46.7615 36.1832C47.0463 37.2459 47.4931 38.1058 48.102 38.7628C48.7052 39.3985 49.3862 39.8994 50.145 40.2657C50.898 40.6106 51.6602 40.862 52.4315 41.0198C53.2183 41.1507 53.9031 41.2406 54.4857 41.2895C55.5873 41.4045 56.5236 41.5408 57.2949 41.6987C58.0818 41.8295 58.7022 42.062 59.1562 42.3959C59.6314 42.7242 59.963 43.2391 60.151 43.9405C60.3674 44.7482 60.2513 45.4627 59.8027 46.0841C59.3541 46.7055 58.6728 47.1387 57.7588 47.3836C56.9724 47.5943 56.1936 47.6207 55.4223 47.4629C54.651 47.3051 53.8958 46.9948 53.1567 46.5322C52.4389 46.0639 51.7352 45.4779 51.0455 44.7743Z" fill="black" fill-opacity="0.1"/>
<path d="M63.1467 30.05L69.1407 28.4439L74.0187 46.649L78.5779 45.4273L73.6999 27.2223L79.7258 25.6076L78.6237 21.4948L62.0447 25.9371L63.1467 30.05Z" fill="black" fill-opacity="0.1"/>
<path d="M86.1553 31.4368C85.7737 30.0127 85.7324 28.6683 86.0314 27.4036C86.3303 26.1389 86.9152 25.0481 87.7859 24.1314C88.6565 23.2147 89.7826 22.5712 91.1642 22.201C92.567 21.8251 93.8746 21.8165 95.087 22.1751C96.2993 22.5336 97.3405 23.1887 98.2106 24.1402C99.0806 25.0917 99.7064 26.2795 100.088 27.7036C100.47 29.1277 100.511 30.4721 100.212 31.7368C99.9342 32.9959 99.36 34.0837 98.4894 35.0005C97.6187 35.9172 96.4926 36.5606 95.111 36.9308C93.7294 37.301 92.4325 37.3068 91.2201 36.9483C90.0077 36.5897 88.9559 35.9375 88.0646 34.9917C87.1733 34.0459 86.5369 32.8609 86.1553 31.4368ZM81.341 32.7268C81.7909 34.406 82.4964 35.8913 83.4576 37.1829C84.4131 38.4532 85.5646 39.4774 86.9121 40.2554C88.2597 41.0334 89.7252 41.5292 91.3088 41.7427C92.9079 41.9293 94.5683 41.792 96.2899 41.3307C98.0116 40.8694 99.5076 40.161 100.778 39.2055C102.064 38.2231 103.085 37.0609 103.842 35.7191C104.62 34.3716 105.105 32.9089 105.297 31.331C105.505 29.7262 105.384 28.0842 104.934 26.405C104.479 24.7046 103.765 23.2327 102.794 21.9894C101.839 20.719 100.679 19.7084 99.3163 18.9573C97.9745 18.2006 96.5176 17.7367 94.9454 17.5656C93.3675 17.3733 91.7284 17.505 90.028 17.9606C88.3488 18.4105 86.8634 19.1161 85.5719 20.0773C84.2959 21.0115 83.266 22.1417 82.4823 23.468C81.6986 24.7942 81.2 26.2492 80.9864 27.8328C80.7672 29.3951 80.8854 31.0264 81.341 32.7268Z" fill="black" fill-opacity="0.1"/>
<path d="M105.469 14.3017L111.449 36.6196L116.008 35.3979L110.028 13.0801L105.469 14.3017ZM109.276 17.4163L113.708 16.2288C114.919 15.9041 115.95 15.9242 116.799 16.2889C117.643 16.6323 118.21 17.346 118.501 18.43C118.786 19.4928 118.651 20.3945 118.098 21.1351C117.545 21.8756 116.662 22.4082 115.451 22.7329L111.019 23.9204L112.053 27.7782L116.484 26.5907C118.249 26.118 119.67 25.4295 120.749 24.5253C121.849 23.6154 122.587 22.5408 122.961 21.3015C123.329 20.0409 123.32 18.6879 122.933 17.2426C122.54 15.776 121.871 14.5996 120.928 13.7134C119.984 12.8272 118.808 12.2651 117.4 12.0272C116.014 11.7837 114.438 11.8983 112.674 12.371L108.242 13.5584L109.276 17.4163Z" fill="black" fill-opacity="0.1"/>
<path d="M216.357 -27.1269C213.213 -26.2844 211.347 -23.0524 212.19 -19.908L219.328 6.73457L219.331 6.73623L219.334 6.73783C219.908 8.58314 221.317 9.95728 223.03 10.5529C223.038 10.5559 223.043 10.5648 223.041 10.5734C223.038 10.5825 223.044 10.5918 223.053 10.5943L239.864 15.0989C243.009 15.9414 246.241 14.0754 247.083 10.9311C247.926 7.78672 246.06 4.55472 242.915 3.71219L231.095 0.544807C230.281 0.3268 229.645 -0.308703 229.427 -1.12232L223.576 -22.9591C222.734 -26.1034 219.502 -27.9694 216.357 -27.1269Z" fill="black" fill-opacity="0.1"/>
<path fill-rule="evenodd" clip-rule="evenodd" d="M189.774 -57.1048C186.63 -56.2623 184.764 -53.0303 185.607 -49.886C186.449 -46.7416 189.681 -44.8756 192.825 -45.7181L202.163 -48.22C203.42 -48.557 204.713 -47.8106 205.05 -46.5529L205.809 -43.7222C206.119 -42.5641 205.507 -41.3628 204.411 -40.8765C182.514 -31.1605 170.331 -6.69174 176.726 17.1758C183.804 43.5883 210.952 59.2627 237.365 52.1855C263.777 45.1083 279.452 17.9595 272.375 -8.45303C266.02 -32.1695 243.482 -47.2281 219.825 -44.9315C218.64 -44.8165 217.523 -45.5499 217.215 -46.6998L216.437 -49.6039C216.1 -50.8617 216.846 -52.1545 218.104 -52.4915L226.986 -54.8713C230.13 -55.7138 231.996 -58.9458 231.153 -62.0902C230.311 -65.2345 227.079 -67.1005 223.934 -66.258L189.774 -57.1048ZM260.988 -5.402C266.38 14.7218 254.438 35.4067 234.314 40.7988C214.19 46.191 193.505 34.2486 188.113 14.1248C182.721 -5.99905 194.663 -26.6839 214.787 -32.076C234.911 -37.4682 255.596 -25.5258 260.988 -5.402Z" fill="black" fill-opacity="0.1"/>
<path d="M296.891 -80.925C296.217 -83.4404 297.71 -86.026 300.225 -86.7001L325.276 -93.4124C327.792 -94.0864 330.377 -92.5936 331.051 -90.0781L359.121 14.6794C359.795 17.1949 358.302 19.7805 355.787 20.4545L330.736 27.1668C328.22 27.8409 325.635 26.3481 324.961 23.8326L296.891 -80.925Z" fill="black" fill-opacity="0.1"/>
<path d="M358.379 -97.4007C357.705 -99.9162 359.198 -102.502 361.713 -103.176L386.764 -109.888C389.28 -110.562 391.865 -109.069 392.539 -106.554L420.609 -1.79626C421.283 0.719217 419.79 3.30483 417.275 3.97885L392.224 10.6912C389.709 11.3652 387.123 9.87238 386.449 7.3569L358.379 -97.4007Z" fill="black" fill-opacity="0.1"/>
<path fill-rule="evenodd" clip-rule="evenodd" d="M-4.53941 142.842C-5.62245 142.217 -6.90953 142.047 -8.11751 142.371L-51.5095 153.998C-52.7175 154.321 -53.7474 155.112 -54.3727 156.195L-76.8341 195.099C-77.4593 196.182 -77.6288 197.469 -77.3051 198.677L-65.6783 242.069C-65.3546 243.277 -64.5643 244.307 -63.4813 244.932L-24.577 267.394C-23.494 268.019 -22.2069 268.188 -20.999 267.865L22.3931 256.238C23.601 255.914 24.6309 255.124 25.2562 254.041L47.7176 215.136C48.3429 214.053 48.5123 212.766 48.1887 211.558L36.5618 168.166C36.2381 166.958 35.4478 165.929 34.3648 165.303L-4.53941 142.842ZM-6.20487 155.492C-7.28792 154.867 -8.57499 154.698 -9.78296 155.021L-43.7419 164.121C-44.9499 164.444 -45.9798 165.234 -46.6051 166.318L-64.1836 196.764C-64.8089 197.847 -64.9783 199.134 -64.6546 200.342L-55.5554 234.301C-55.2317 235.509 -54.4414 236.539 -53.3584 237.165L-22.9116 254.743C-21.8285 255.368 -20.5415 255.538 -19.3335 255.214L14.6255 246.115C15.8335 245.791 16.8634 245.001 17.4887 243.918L35.0671 213.471C35.6924 212.388 35.8619 211.101 35.5382 209.893L26.4389 175.934C26.1152 174.726 25.3249 173.696 24.2419 173.071L-6.20487 155.492Z" fill="black" fill-opacity="0.1"/>
<path d="M-13.8724 204.69C-14.2539 203.266 -14.2953 201.921 -13.9963 200.657C-13.6973 199.392 -13.1125 198.301 -12.2418 197.384C-11.3712 196.468 -10.2451 195.824 -8.86347 195.454C-7.46063 195.078 -6.15301 195.069 -4.94065 195.428C-3.72829 195.787 -2.68711 196.442 -1.81707 197.393C-0.947022 198.345 -0.321199 199.532 0.0603865 200.957C0.441972 202.381 0.483284 203.725 0.184295 204.99C-0.0934385 206.249 -0.667635 207.337 -1.53828 208.253C-2.40892 209.17 -3.53504 209.814 -4.91662 210.184C-6.29821 210.554 -7.5952 210.56 -8.80756 210.201C-10.0199 209.843 -11.0717 209.19 -11.963 208.245C-12.8543 207.299 -13.4908 206.114 -13.8724 204.69ZM-18.6867 205.98C-18.2367 207.659 -17.5312 209.144 -16.57 210.436C-15.6145 211.706 -14.463 212.73 -13.1155 213.508C-11.768 214.286 -10.3024 214.782 -8.71888 214.996C-7.11976 215.182 -5.45936 215.045 -3.73769 214.584C-2.01602 214.122 -0.520052 213.414 0.75027 212.458C2.03615 211.476 3.05749 210.314 3.81422 208.972C4.59222 207.625 5.07736 206.162 5.26966 204.584C5.47752 202.979 5.3565 201.337 4.90657 199.658C4.45094 197.958 3.73761 196.486 2.76658 195.242C1.81111 193.972 0.65181 192.961 -0.711273 192.21C-2.0531 191.454 -3.51008 190.99 -5.08226 190.819C-6.66012 190.626 -8.29927 190.758 -9.99969 191.214C-11.6788 191.663 -13.1642 192.369 -14.4558 193.33C-15.7318 194.264 -16.7617 195.395 -17.5454 196.721C-18.329 198.047 -18.8277 199.502 -19.0412 201.086C-19.2605 202.648 -19.1423 204.279 -18.6867 205.98Z" fill="black" fill-opacity="0.1"/>
<path d="M5.44107 187.555L11.4212 209.873L15.9804 208.651L10.0003 186.333L5.44107 187.555ZM9.24855 190.669L13.6803 189.482C14.8918 189.157 15.9223 189.177 16.7718 189.542C17.6156 189.885 18.1828 190.599 18.4732 191.683C18.758 192.746 18.6237 193.647 18.0703 194.388C17.517 195.129 16.6346 195.661 15.423 195.986L10.9913 197.173L12.025 201.031L16.4567 199.844C18.2209 199.371 19.6425 198.682 20.7215 197.778C21.8218 196.868 22.559 195.794 22.9332 194.554C23.3016 193.294 23.2922 191.941 22.9049 190.496C22.512 189.029 21.8436 187.853 20.8999 186.966C19.9563 186.08 18.7805 185.518 17.3727 185.28C15.9861 185.037 14.4108 185.151 12.6466 185.624L8.21486 186.811L9.24855 190.669Z" fill="black" fill-opacity="0.1"/>
<path d="M116.33 146.126C113.185 146.969 111.319 150.201 112.162 153.345L119.301 179.988L119.304 179.989L119.307 179.991C119.88 181.836 121.29 183.21 123.002 183.806C123.011 183.809 123.015 183.818 123.013 183.826C123.011 183.835 123.016 183.845 123.025 183.847L139.837 188.352C142.981 189.194 146.213 187.328 147.055 184.184C147.898 181.04 146.032 177.808 142.888 176.965L131.067 173.798C130.253 173.58 129.618 172.944 129.4 172.131L123.549 150.294C122.706 147.15 119.474 145.284 116.33 146.126Z" fill="black" fill-opacity="0.1"/>
<path fill-rule="evenodd" clip-rule="evenodd" d="M89.7468 116.148C86.6024 116.991 84.7364 120.223 85.5789 123.367C86.4215 126.511 89.6535 128.377 92.7978 127.535L102.135 125.033C103.393 124.696 104.685 125.442 105.022 126.7L105.781 129.531C106.091 130.689 105.479 131.89 104.383 132.376C82.4866 142.092 70.3035 166.561 76.6988 190.429C83.776 216.841 110.925 232.516 137.337 225.438C163.75 218.361 179.424 191.212 172.347 164.8C165.992 141.083 143.454 126.025 119.798 128.321C118.613 128.436 117.495 127.703 117.187 126.553L116.409 123.649C116.072 122.391 116.819 121.098 118.076 120.761L126.958 118.382C130.102 117.539 131.968 114.307 131.126 111.163C130.283 108.018 127.051 106.152 123.907 106.995L89.7468 116.148ZM160.96 167.851C166.352 187.975 154.41 208.66 134.286 214.052C114.162 219.444 93.4777 207.502 88.0855 187.378C82.6933 167.254 94.6357 146.569 114.76 141.177C134.883 135.785 155.568 147.727 160.96 167.851Z" fill="black" fill-opacity="0.1"/>
<path d="M196.863 92.328C196.189 89.8125 197.682 87.2269 200.198 86.5529L225.248 79.8406C227.764 79.1666 230.349 80.6593 231.024 83.1748L259.093 187.932C259.767 190.448 258.274 193.033 255.759 193.708L230.708 200.42C228.193 201.094 225.607 199.601 224.933 197.086L196.863 92.328Z" fill="black" fill-opacity="0.1"/>
<path d="M258.352 75.8523C257.678 73.3368 259.17 70.7512 261.686 70.0772L286.737 63.3649C289.252 62.6909 291.838 64.1837 292.512 66.6991L320.581 171.457C321.255 173.972 319.763 176.558 317.247 177.232L292.196 183.944C289.681 184.618 287.095 183.125 286.421 180.61L258.352 75.8523Z" fill="black" fill-opacity="0.1"/>
<path fill-rule="evenodd" clip-rule="evenodd" d="M405.382 33.0039C404.298 32.3786 403.011 32.2091 401.803 32.5328L358.411 44.1596C357.203 44.4833 356.173 45.2736 355.548 46.3566L333.087 85.2609C332.462 86.3439 332.292 87.631 332.616 88.839L344.243 132.231C344.566 133.439 345.357 134.469 346.44 135.094L385.344 157.555C386.427 158.181 387.714 158.35 388.922 158.027L432.314 146.4C433.522 146.076 434.552 145.286 435.177 144.203L457.639 105.299C458.264 104.215 458.433 102.928 458.11 101.72L446.483 58.3284C446.159 57.1204 445.369 56.0905 444.286 55.4652L405.382 33.0039ZM403.716 45.6543C402.633 45.0291 401.346 44.8596 400.138 45.1833L366.179 54.2826C364.971 54.6062 363.941 55.3965 363.316 56.4796L345.737 86.9263C345.112 88.0094 344.943 89.2964 345.266 90.5044L354.366 124.463C354.689 125.671 355.48 126.701 356.563 127.327L387.009 144.905C388.092 145.53 389.379 145.7 390.587 145.376L424.546 136.277C425.754 135.953 426.784 135.163 427.41 134.08L444.988 103.633C445.613 102.55 445.783 101.263 445.459 100.055L436.36 66.096C436.036 64.888 435.246 63.8581 434.163 63.2328L403.716 45.6543Z" fill="black" fill-opacity="0.1"/>
<path d="M360.939 108.189L358.302 111.356C359.07 112.267 360.009 113.052 361.12 113.711C362.23 114.37 363.441 114.809 364.753 115.027C366.08 115.218 367.423 115.131 368.784 114.767C369.804 114.493 370.728 114.075 371.557 113.511C372.413 112.963 373.135 112.302 373.725 111.529C374.31 110.735 374.701 109.855 374.898 108.891C375.095 107.927 375.049 106.903 374.758 105.819C374.502 104.863 374.118 104.066 373.605 103.428C373.108 102.764 372.512 102.24 371.817 101.857C371.138 101.447 370.407 101.142 369.624 100.941C368.863 100.735 368.086 100.602 367.295 100.54C366.066 100.459 365.031 100.338 364.191 100.176C363.344 99.9927 362.686 99.7475 362.217 99.4405C361.742 99.1122 361.43 98.6718 361.282 98.1191C361.134 97.5665 361.229 97.0285 361.567 96.505C361.899 95.9603 362.512 95.5684 363.405 95.3292C364.085 95.1469 364.728 95.1227 365.333 95.2567C365.933 95.3694 366.494 95.5948 367.018 95.9329C367.557 96.2441 368.046 96.6255 368.486 97.0772L371.527 94.1436C370.934 93.4597 370.19 92.8504 369.295 92.3157C368.415 91.754 367.392 91.3789 366.225 91.1903C365.074 90.9748 363.786 91.0579 362.362 91.4395C360.981 91.8097 359.795 92.4007 358.805 93.2127C357.831 93.9977 357.14 94.9462 356.731 96.0579C356.339 97.1428 356.313 98.3228 356.655 99.5981C356.94 100.661 357.386 101.521 357.995 102.178C358.598 102.813 359.279 103.314 360.038 103.681C360.791 104.026 361.553 104.277 362.325 104.435C363.112 104.566 363.796 104.656 364.379 104.705C365.48 104.819 366.417 104.956 367.188 105.114C367.975 105.245 368.595 105.477 369.049 105.811C369.525 106.139 369.856 106.654 370.044 107.355C370.261 108.163 370.145 108.878 369.696 109.499C369.247 110.121 368.566 110.554 367.652 110.799C366.866 111.009 366.087 111.036 365.316 110.878C364.544 110.72 363.789 110.41 363.05 109.947C362.332 109.479 361.628 108.893 360.939 108.189Z" fill="black" fill-opacity="0.1"/>
<path d="M373.04 93.465L379.034 91.8589L383.912 110.064L388.471 108.842L383.593 90.6373L389.619 89.0226L388.517 84.9098L371.938 89.3521L373.04 93.465Z" fill="black" fill-opacity="0.1"/>
<path d="M396.049 94.8518C395.667 93.4277 395.626 92.0833 395.925 90.8186C396.224 89.5538 396.808 88.4631 397.679 87.5464C398.55 86.6297 399.676 85.9862 401.057 85.616C402.46 85.2401 403.768 85.2315 404.98 85.5901C406.193 85.9486 407.234 86.6037 408.104 87.5552C408.974 88.5067 409.6 89.6945 409.981 91.1186C410.363 92.5426 410.404 93.8871 410.105 95.1518C409.827 96.4109 409.253 97.4987 408.383 98.4155C407.512 99.3322 406.386 99.9757 405.004 100.346C403.623 100.716 402.326 100.722 401.113 100.363C399.901 100.005 398.849 99.3525 397.958 98.4067C397.067 97.4609 396.43 96.2759 396.049 94.8518ZM391.234 96.1418C391.684 97.821 392.39 99.3063 393.351 100.598C394.306 101.868 395.458 102.892 396.805 103.67C398.153 104.448 399.618 104.944 401.202 105.158C402.801 105.344 404.462 105.207 406.183 104.746C407.905 104.284 409.401 103.576 410.671 102.62C411.957 101.638 412.978 100.476 413.735 99.1341C414.513 97.7866 414.998 96.3239 415.191 94.746C415.398 93.1412 415.277 91.4992 414.827 89.82C414.372 88.1196 413.658 86.6477 412.687 85.4044C411.732 84.134 410.573 83.1234 409.21 82.3723C407.868 81.6156 406.411 81.1517 404.839 80.9806C403.261 80.7883 401.622 80.92 399.921 81.3756C398.242 81.8255 396.757 82.5311 395.465 83.4923C394.189 84.4265 393.159 85.5567 392.376 86.883C391.592 88.2092 391.093 89.6642 390.88 91.2477C390.66 92.81 390.779 94.4414 391.234 96.1418Z" fill="black" fill-opacity="0.1"/>
<path d="M415.362 77.7167L421.342 100.035L425.901 98.8129L419.921 76.495L415.362 77.7167ZM419.169 80.8312L423.601 79.6438C424.813 79.3191 425.843 79.3392 426.693 79.7039C427.537 80.0473 428.104 80.761 428.394 81.845C428.679 82.9078 428.545 83.8095 427.991 84.55C427.438 85.2906 426.555 85.8232 425.344 86.1478L420.912 87.3353L421.946 91.1931L426.378 90.0057C428.142 89.5329 429.563 88.8445 430.642 87.9403C431.743 87.0304 432.48 85.9557 432.854 84.7164C433.222 83.4559 433.213 82.1029 432.826 80.6575C432.433 79.1909 431.764 78.0146 430.821 77.1284C429.877 76.2422 428.701 75.6801 427.294 75.4422C425.907 75.1987 424.332 75.3133 422.567 75.786L418.136 76.9734L419.169 80.8312Z" fill="black" fill-opacity="0.1"/>
<path d="M526.251 36.2881C523.106 37.1306 521.24 40.3626 522.083 43.507L529.222 70.1495L529.225 70.1512L529.227 70.1528C529.801 71.9981 531.211 73.3723 532.923 73.9679C532.932 73.9708 532.936 73.9798 532.934 73.9884C532.932 73.9975 532.937 74.0068 532.946 74.0092L549.758 78.5138C552.902 79.3564 556.134 77.4904 556.976 74.346C557.819 71.2017 555.953 67.9697 552.809 67.1272L540.988 63.9598C540.174 63.7418 539.539 63.1063 539.321 62.2927L533.47 40.4559C532.627 37.3115 529.395 35.4456 526.251 36.2881Z" fill="black" fill-opacity="0.1"/>
<path fill-rule="evenodd" clip-rule="evenodd" d="M499.668 6.31014C496.523 7.15267 494.657 10.3847 495.5 13.529C496.342 16.6734 499.574 18.5394 502.719 17.6968L512.056 15.195C513.314 14.858 514.606 15.6044 514.943 16.8621L515.702 19.6928C516.012 20.8509 515.4 22.0522 514.304 22.5385C492.408 32.2545 480.224 56.7233 486.62 80.5908C493.697 107.003 520.846 122.678 547.258 115.6C573.671 108.523 589.345 81.3745 582.268 54.9619C575.913 31.2455 553.375 16.1869 529.719 18.4835C528.534 18.5985 527.416 17.865 527.108 16.7152L526.33 13.8111C525.993 12.5533 526.739 11.2605 527.997 10.9235L536.879 8.54366C540.023 7.70113 541.889 4.46916 541.047 1.32481C540.204 -1.81954 536.972 -3.68556 533.828 -2.84304L499.668 6.31014ZM570.881 58.013C576.273 78.1368 564.331 98.8216 544.207 104.214C524.083 109.606 503.399 97.6636 498.006 77.5398C492.614 57.4159 504.557 36.7311 524.68 31.339C544.804 25.9468 565.489 37.8892 570.881 58.013Z" fill="black" fill-opacity="0.1"/>
<path d="M606.784 -17.51C606.11 -20.0255 607.603 -22.6111 610.119 -23.2851L635.169 -29.9974C637.685 -30.6714 640.27 -29.1786 640.944 -26.6632L669.014 78.0944C669.688 80.6099 668.195 83.1955 665.68 83.8695L640.629 90.5818C638.114 91.2559 635.528 89.7631 634.854 87.2476L606.784 -17.51Z" fill="black" fill-opacity="0.1"/>
<path d="M668.273 -33.9857C667.598 -36.5012 669.091 -39.0868 671.607 -39.7608L696.657 -46.4731C699.173 -47.1471 701.758 -45.6543 702.433 -43.1389L730.502 61.6187C731.176 64.1342 729.683 66.7198 727.168 67.3939L702.117 74.1061C699.602 74.7802 697.016 73.2873 696.342 70.7719L668.273 -33.9857Z" fill="black" fill-opacity="0.1"/>
<path fill-rule="evenodd" clip-rule="evenodd" d="M815.302 -76.8341C814.219 -77.4594 812.932 -77.6289 811.724 -77.3052L768.332 -65.6783C767.124 -65.3546 766.094 -64.5644 765.469 -63.4813L743.008 -24.5771C742.383 -23.4941 742.213 -22.207 742.537 -20.999L754.164 22.393C754.487 23.601 755.277 24.6309 756.36 25.2562L795.265 47.7175C796.348 48.3428 797.635 48.5123 798.843 48.1886L842.235 36.5618C843.443 36.2381 844.473 35.4478 845.098 34.3647L867.559 -4.53949C868.185 -5.62253 868.354 -6.90961 868.031 -8.11759L856.404 -51.5096C856.08 -52.7176 855.29 -53.7475 854.207 -54.3728L815.302 -76.8341ZM813.637 -64.1836C812.554 -64.8089 811.267 -64.9784 810.059 -64.6547L776.1 -55.5554C774.892 -55.2318 773.862 -54.4415 773.237 -53.3584L755.658 -22.9116C755.033 -21.8286 754.864 -20.5415 755.187 -19.3336L764.286 14.6254C764.61 15.8334 765.4 16.8633 766.483 17.4886L796.93 35.067C798.013 35.6923 799.3 35.8618 800.508 35.5381L834.467 26.4388C835.675 26.1151 836.705 25.3249 837.331 24.2418L854.909 -6.20495C855.534 -7.28799 855.704 -8.57506 855.38 -9.78304L846.281 -43.742C845.957 -44.95 845.167 -45.9799 844.084 -46.6052L813.637 -64.1836Z" fill="black" fill-opacity="0.1"/>
<path d="M770.86 -1.64879L768.223 1.51817C768.991 2.42868 769.93 3.21359 771.041 3.8728C772.151 4.53201 773.362 4.97066 774.674 5.18879C776.001 5.37998 777.344 5.29329 778.705 4.92879C779.725 4.65542 780.649 4.23688 781.478 3.67316C782.333 3.12499 783.056 2.46434 783.646 1.69112C784.231 0.896636 784.622 0.0172725 784.819 -0.94684C785.016 -1.91095 784.97 -2.93496 784.679 -4.01897C784.423 -4.97545 784.039 -5.77233 783.526 -6.40958C783.029 -7.07377 782.433 -7.59754 781.738 -7.98084C781.059 -8.39109 780.328 -8.69637 779.545 -8.89671C778.784 -9.10275 778.007 -9.23648 777.216 -9.29791C775.987 -9.37865 774.952 -9.50003 774.112 -9.66203C773.265 -9.84529 772.607 -10.0904 772.138 -10.3974C771.662 -10.7257 771.351 -11.1662 771.203 -11.7188C771.055 -12.2715 771.15 -12.8095 771.488 -13.333C771.82 -13.8777 772.433 -14.2696 773.326 -14.5088C774.006 -14.6911 774.648 -14.7152 775.254 -14.5813C775.854 -14.4686 776.415 -14.2432 776.939 -13.905C777.478 -13.5938 777.967 -13.2124 778.407 -12.7608L781.448 -15.6943C780.855 -16.3782 780.111 -16.9876 779.216 -17.5223C778.336 -18.084 777.313 -18.4591 776.146 -18.6476C774.995 -18.8631 773.707 -18.7801 772.283 -18.3985C770.902 -18.0283 769.716 -17.4372 768.726 -16.6253C767.752 -15.8402 767.061 -14.8918 766.652 -13.7801C766.259 -12.6952 766.234 -11.5151 766.576 -10.2398C766.86 -9.17707 767.307 -8.31719 767.916 -7.66022C768.519 -7.0245 769.2 -6.52354 769.959 -6.15732C770.712 -5.81236 771.474 -5.56097 772.246 -5.40314C773.033 -5.27226 773.717 -5.18236 774.3 -5.13345C775.401 -5.01854 776.338 -4.88215 777.109 -4.72432C777.896 -4.59343 778.516 -4.36102 778.97 -4.02704C779.446 -3.69876 779.777 -3.18391 779.965 -2.48249C780.182 -1.67479 780.066 -0.960265 779.617 -0.338878C779.168 0.282509 778.487 0.715676 777.573 0.960574C776.787 1.1713 776.008 1.19775 775.236 1.03991C774.465 0.882081 773.71 0.571852 772.971 0.109225C772.253 -0.359096 771.549 -0.945132 770.86 -1.64879Z" fill="black" fill-opacity="0.1"/>
<path d="M782.961 -16.373L788.955 -17.9791L793.833 0.225978L798.392 -0.995685L793.514 -19.2007L799.54 -20.8154L798.438 -24.9282L781.859 -20.4859L782.961 -16.373Z" fill="black" fill-opacity="0.1"/>
<path d="M16.3021 319.379C13.1578 320.222 11.2918 323.454 12.1343 326.598L19.2731 353.24L19.276 353.242L19.2789 353.244C19.8527 355.089 21.2621 356.463 22.9746 357.059C22.983 357.062 22.9878 357.071 22.9855 357.079C22.983 357.088 22.9884 357.098 22.9975 357.1L39.8089 361.605C42.9533 362.447 46.1853 360.581 47.0278 357.437C47.8703 354.293 46.0044 351.061 42.86 350.218L31.0393 347.051C30.2256 346.833 29.5901 346.197 29.3721 345.384L23.521 323.547C22.6784 320.402 19.4464 318.536 16.3021 319.379Z" fill="black" fill-opacity="0.1"/>
<path fill-rule="evenodd" clip-rule="evenodd" d="M-10.2809 289.401C-13.4252 290.244 -15.2912 293.476 -14.4487 296.62C-13.6062 299.764 -10.3742 301.63 -7.22982 300.788L2.10726 298.286C3.365 297.949 4.65781 298.695 4.99482 299.953L5.7533 302.784C6.06362 303.942 5.45171 305.143 4.35576 305.629C-17.541 315.345 -29.7241 339.814 -23.3288 363.682C-16.2516 390.094 10.8972 405.769 37.3097 398.691C63.7222 391.614 79.3966 364.465 72.3194 338.053C65.9646 314.336 43.4267 299.278 19.77 301.574C18.5852 301.689 17.4678 300.956 17.1597 299.806L16.3815 296.902C16.0445 295.644 16.7909 294.351 18.0486 294.014L26.9303 291.635C30.0746 290.792 31.9406 287.56 31.0981 284.416C30.2556 281.271 27.0236 279.405 23.8792 280.248L-10.2809 289.401ZM60.9327 341.104C66.3249 361.228 54.3825 381.913 34.2587 387.305C14.1348 392.697 -6.54996 380.755 -11.9421 360.631C-17.3343 340.507 -5.39192 319.822 14.7319 314.43C34.8557 309.038 55.5405 320.98 60.9327 341.104Z" fill="black" fill-opacity="0.1"/>
<path d="M96.8358 265.581C96.1617 263.066 97.6545 260.48 100.17 259.806L125.221 253.094C127.736 252.419 130.322 253.912 130.996 256.428L159.066 361.185C159.74 363.701 158.247 366.286 155.731 366.96L130.681 373.673C128.165 374.347 125.579 372.854 124.905 370.338L96.8358 265.581Z" fill="black" fill-opacity="0.1"/>
<path d="M158.324 249.105C157.65 246.59 159.143 244.004 161.658 243.33L186.709 236.618C189.224 235.944 191.81 237.437 192.484 239.952L220.554 344.71C221.228 347.225 219.735 349.811 217.219 350.485L192.169 357.197C189.653 357.871 187.068 356.378 186.394 353.863L158.324 249.105Z" fill="black" fill-opacity="0.1"/>
<path fill-rule="evenodd" clip-rule="evenodd" d="M305.354 206.257C304.271 205.632 302.984 205.462 301.776 205.786L258.384 217.413C257.176 217.736 256.146 218.527 255.521 219.61L233.059 258.514C232.434 259.597 232.264 260.884 232.588 262.092L244.215 305.484C244.539 306.692 245.329 307.722 246.412 308.347L285.316 330.808C286.399 331.434 287.686 331.603 288.894 331.279L332.286 319.653C333.494 319.329 334.524 318.539 335.149 317.456L357.611 278.551C358.236 277.468 358.406 276.181 358.082 274.973L346.455 231.581C346.131 230.373 345.341 229.343 344.258 228.718L305.354 206.257ZM303.688 218.907C302.605 218.282 301.318 218.113 300.11 218.436L266.151 227.536C264.943 227.859 263.913 228.65 263.288 229.733L245.71 260.179C245.084 261.262 244.915 262.549 245.239 263.757L254.338 297.716C254.662 298.924 255.452 299.954 256.535 300.58L286.982 318.158C288.065 318.783 289.352 318.953 290.56 318.629L324.519 309.53C325.727 309.206 326.757 308.416 327.382 307.333L344.96 276.886C345.586 275.803 345.755 274.516 345.431 273.308L336.332 239.349C336.008 238.141 335.218 237.111 334.135 236.486L303.688 218.907Z" fill="black" fill-opacity="0.1"/>
<path d="M260.911 281.442L258.274 284.609C259.042 285.52 259.981 286.304 261.092 286.964C262.203 287.623 263.414 288.062 264.725 288.28C266.052 288.471 267.396 288.384 268.756 288.02C269.776 287.746 270.701 287.328 271.529 286.764C272.385 286.216 273.108 285.555 273.698 284.782C274.282 283.988 274.673 283.108 274.87 282.144C275.068 281.18 275.021 280.156 274.731 279.072C274.474 278.115 274.09 277.319 273.578 276.681C273.081 276.017 272.485 275.493 271.79 275.11C271.11 274.7 270.379 274.395 269.596 274.194C268.835 273.988 268.059 273.854 267.268 273.793C266.039 273.712 265.004 273.591 264.163 273.429C263.317 273.246 262.659 273.001 262.189 272.694C261.714 272.365 261.402 271.925 261.254 271.372C261.106 270.819 261.201 270.281 261.539 269.758C261.872 269.213 262.484 268.821 263.377 268.582C264.057 268.4 264.7 268.376 265.305 268.51C265.905 268.622 266.467 268.848 266.99 269.186C267.529 269.497 268.019 269.879 268.459 270.33L271.5 267.397C270.906 266.713 270.162 266.103 269.267 265.569C268.388 265.007 267.365 264.632 266.198 264.443C265.046 264.228 263.759 264.311 262.335 264.692C260.953 265.063 259.767 265.654 258.778 266.466C257.803 267.251 257.112 268.199 256.704 269.311C256.311 270.396 256.285 271.576 256.627 272.851C256.912 273.914 257.359 274.774 257.968 275.431C258.571 276.066 259.252 276.567 260.011 276.934C260.764 277.279 261.526 277.53 262.297 277.688C263.084 277.819 263.769 277.909 264.351 277.958C265.453 278.072 266.389 278.209 267.161 278.367C267.947 278.497 268.568 278.73 269.022 279.064C269.497 279.392 269.829 279.907 270.017 280.608C270.233 281.416 270.117 282.131 269.668 282.752C269.22 283.373 268.538 283.807 267.624 284.051C266.838 284.262 266.059 284.289 265.288 284.131C264.517 283.973 263.761 283.663 263.022 283.2C262.305 282.732 261.601 282.146 260.911 281.442Z" fill="black" fill-opacity="0.1"/>
<path d="M273.012 266.718L279.006 265.112L283.884 283.317L288.444 282.095L283.565 263.89L289.591 262.276L288.489 258.163L271.91 262.605L273.012 266.718Z" fill="black" fill-opacity="0.1"/>
<path d="M296.021 268.105C295.639 266.681 295.598 265.336 295.897 264.072C296.196 262.807 296.781 261.716 297.651 260.799C298.522 259.883 299.648 259.239 301.03 258.869C302.433 258.493 303.74 258.484 304.953 258.843C306.165 259.202 307.206 259.857 308.076 260.808C308.946 261.76 309.572 262.947 309.954 264.371C310.335 265.796 310.377 267.14 310.078 268.405C309.8 269.664 309.226 270.752 308.355 271.668C307.484 272.585 306.358 273.229 304.977 273.599C303.595 273.969 302.298 273.975 301.086 273.616C299.873 273.258 298.822 272.605 297.93 271.66C297.039 270.714 296.402 269.529 296.021 268.105ZM291.207 269.395C291.657 271.074 292.362 272.559 293.323 273.851C294.279 275.121 295.43 276.145 296.778 276.923C298.125 277.701 299.591 278.197 301.174 278.411C302.773 278.597 304.434 278.46 306.156 277.999C307.877 277.537 309.373 276.829 310.644 275.873C311.929 274.891 312.951 273.729 313.707 272.387C314.485 271.039 314.971 269.577 315.163 267.999C315.371 266.394 315.25 264.752 314.8 263.073C314.344 261.373 313.631 259.901 312.66 258.657C311.704 257.387 310.545 256.376 309.182 255.625C307.84 254.869 306.383 254.405 304.811 254.234C303.233 254.041 301.594 254.173 299.894 254.629C298.214 255.078 296.729 255.784 295.437 256.745C294.161 257.679 293.132 258.81 292.348 260.136C291.564 261.462 291.066 262.917 290.852 264.501C290.633 266.063 290.751 267.694 291.207 269.395Z" fill="black" fill-opacity="0.1"/>
<path d="M315.334 250.97L321.314 273.288L325.874 272.066L319.894 249.748L315.334 250.97ZM319.142 254.084L323.574 252.897C324.785 252.572 325.816 252.592 326.665 252.957C327.509 253.3 328.076 254.014 328.367 255.098C328.651 256.161 328.517 257.062 327.964 257.803C327.41 258.544 326.528 259.076 325.316 259.401L320.885 260.588L321.918 264.446L326.35 263.259C328.114 262.786 329.536 262.097 330.615 261.193C331.715 260.283 332.452 259.209 332.826 257.969C333.195 256.709 333.185 255.356 332.798 253.911C332.405 252.444 331.737 251.267 330.793 250.381C329.85 249.495 328.674 248.933 327.266 248.695C325.879 248.452 324.304 248.566 322.54 249.039L318.108 250.226L319.142 254.084Z" fill="black" fill-opacity="0.1"/>
<path d="M426.223 209.541C423.079 210.384 421.213 213.616 422.055 216.76L429.194 243.402L429.197 243.404L429.2 243.406C429.774 245.251 431.183 246.625 432.895 247.221C432.904 247.224 432.909 247.233 432.906 247.241C432.904 247.25 432.909 247.26 432.918 247.262L449.73 251.767C452.874 252.609 456.106 250.743 456.949 247.599C457.791 244.455 455.925 241.223 452.781 240.38L440.96 237.213C440.147 236.995 439.511 236.359 439.293 235.546L433.442 213.709C432.599 210.565 429.367 208.699 426.223 209.541Z" fill="black" fill-opacity="0.1"/>
<path fill-rule="evenodd" clip-rule="evenodd" d="M399.64 179.563C396.496 180.406 394.63 183.638 395.472 186.782C396.315 189.926 399.547 191.792 402.691 190.95L412.028 188.448C413.286 188.111 414.579 188.857 414.916 190.115L415.674 192.946C415.985 194.104 415.373 195.305 414.277 195.791C392.38 205.507 380.197 229.976 386.592 253.844C393.669 280.256 420.818 295.931 447.231 288.853C473.643 281.776 489.318 254.627 482.24 228.215C475.886 204.498 453.348 189.44 429.691 191.736C428.506 191.851 427.389 191.118 427.081 189.968L426.302 187.064C425.965 185.806 426.712 184.513 427.97 184.176L436.851 181.797C439.996 180.954 441.862 177.722 441.019 174.578C440.176 171.433 436.944 169.567 433.8 170.41L399.64 179.563ZM470.854 231.266C476.246 251.39 464.303 272.075 444.18 277.467C424.056 282.859 403.371 270.917 397.979 250.793C392.587 230.669 404.529 209.984 424.653 204.592C444.777 199.2 465.461 211.142 470.854 231.266Z" fill="black" fill-opacity="0.1"/>
<path d="M506.757 155.743C506.083 153.227 507.575 150.642 510.091 149.968L535.142 143.256C537.657 142.582 540.243 144.074 540.917 146.59L568.986 251.347C569.66 253.863 568.168 256.448 565.652 257.122L540.601 263.835C538.086 264.509 535.5 263.016 534.826 260.501L506.757 155.743Z" fill="black" fill-opacity="0.1"/>
<path d="M568.245 139.267C567.571 136.752 569.064 134.166 571.579 133.492L596.63 126.78C599.145 126.106 601.731 127.599 602.405 130.114L630.475 234.872C631.149 237.387 629.656 239.973 627.14 240.647L602.09 247.359C599.574 248.033 596.989 246.54 596.315 244.025L568.245 139.267Z" fill="black" fill-opacity="0.1"/>
<path d="M836.144 99.7031C833 100.546 831.134 103.778 831.976 106.922L839.115 133.565L839.118 133.566L839.121 133.568C839.695 135.413 841.104 136.787 842.816 137.383C842.825 137.386 842.83 137.395 842.827 137.403C842.825 137.412 842.83 137.422 842.839 137.424L859.651 141.929C862.795 142.771 866.027 140.905 866.87 137.761C867.712 134.617 865.846 131.385 862.702 130.542L850.881 127.375C850.068 127.157 849.432 126.521 849.214 125.708L843.363 103.871C842.52 100.727 839.288 98.8606 836.144 99.7031Z" fill="black" fill-opacity="0.1"/>
<path fill-rule="evenodd" clip-rule="evenodd" d="M809.561 69.7251C806.417 70.5677 804.551 73.7997 805.393 76.944C806.236 80.0884 809.468 81.9544 812.612 81.1118L821.949 78.61C823.207 78.273 824.5 79.0193 824.837 80.2771L825.595 83.1077C825.905 84.2658 825.294 85.4671 824.198 85.9534C802.301 95.6694 790.118 120.138 796.513 144.006C803.59 170.418 830.739 186.093 857.152 179.015C883.564 171.938 899.238 144.789 892.161 118.377C885.806 94.6605 863.268 79.6019 839.612 81.8984C838.427 82.0134 837.31 81.28 837.002 80.1302L836.223 77.226C835.886 75.9683 836.633 74.6755 837.891 74.3385L846.772 71.9587C849.916 71.1161 851.782 67.8841 850.94 64.7398C850.097 61.5954 846.865 59.7294 843.721 60.572L809.561 69.7251ZM880.774 121.428C886.167 141.552 874.224 162.237 854.1 167.629C833.977 173.021 813.292 161.079 807.9 140.955C802.508 120.831 814.45 100.146 834.574 94.7539C854.698 89.3618 875.382 101.304 880.774 121.428Z" fill="black" fill-opacity="0.1"/>
<path fill-rule="evenodd" clip-rule="evenodd" d="M715.275 96.4188C714.192 95.7935 712.905 95.6241 711.697 95.9478L668.305 107.575C667.097 107.898 666.067 108.689 665.442 109.772L642.98 148.676C642.355 149.759 642.185 151.046 642.509 152.254L654.136 195.646C654.46 196.854 655.25 197.884 656.333 198.509L695.237 220.97C696.32 221.596 697.607 221.765 698.815 221.442L742.207 209.815C743.415 209.491 744.445 208.701 745.07 207.618L767.532 168.714C768.157 167.63 768.327 166.343 768.003 165.135L756.376 121.743C756.052 120.535 755.262 119.506 754.179 118.88L715.275 96.4188ZM713.609 109.069C712.526 108.444 711.239 108.275 710.031 108.598L676.072 117.698C674.864 118.021 673.834 118.812 673.209 119.895L655.631 150.341C655.005 151.424 654.836 152.711 655.16 153.919L664.259 187.878C664.582 189.086 665.373 190.116 666.456 190.742L696.903 208.32C697.986 208.945 699.273 209.115 700.481 208.791L734.44 199.692C735.648 199.368 736.678 198.578 737.303 197.495L754.881 167.048C755.507 165.965 755.676 164.678 755.352 163.47L746.253 129.511C745.929 128.303 745.139 127.273 744.056 126.648L713.609 109.069Z" fill="black" fill-opacity="0.1"/>
<path d="M670.832 171.604L668.195 174.771C668.963 175.682 669.902 176.467 671.013 177.126C672.124 177.785 673.335 178.224 674.646 178.442C675.973 178.633 677.317 178.546 678.677 178.182C679.697 177.908 680.622 177.49 681.45 176.926C682.306 176.378 683.029 175.717 683.619 174.944C684.203 174.15 684.594 173.27 684.791 172.306C684.989 171.342 684.942 170.318 684.652 169.234C684.395 168.277 684.011 167.481 683.498 166.843C683.002 166.179 682.406 165.655 681.711 165.272C681.031 164.862 680.3 164.557 679.517 164.356C678.756 164.15 677.98 164.016 677.189 163.955C675.96 163.874 674.925 163.753 674.084 163.591C673.238 163.408 672.58 163.163 672.11 162.856C671.635 162.527 671.323 162.087 671.175 161.534C671.027 160.981 671.122 160.443 671.46 159.92C671.793 159.375 672.405 158.983 673.298 158.744C673.978 158.562 674.621 158.538 675.226 158.672C675.826 158.784 676.388 159.01 676.911 159.348C677.45 159.659 677.94 160.041 678.38 160.492L681.421 157.559C680.827 156.875 680.083 156.265 679.188 155.731C678.309 155.169 677.285 154.794 676.119 154.605C674.967 154.39 673.68 154.473 672.256 154.854C670.874 155.225 669.688 155.816 668.698 156.628C667.724 157.413 667.033 158.361 666.625 159.473C666.232 160.558 666.206 161.738 666.548 163.013C666.833 164.076 667.28 164.936 667.889 165.593C668.492 166.228 669.173 166.729 669.931 167.096C670.685 167.441 671.447 167.692 672.218 167.85C673.005 167.981 673.69 168.071 674.272 168.12C675.374 168.234 676.31 168.371 677.082 168.529C677.868 168.66 678.489 168.892 678.943 169.226C679.418 169.554 679.75 170.069 679.937 170.77C680.154 171.578 680.038 172.293 679.589 172.914C679.141 173.535 678.459 173.969 677.545 174.214C676.759 174.424 675.98 174.451 675.209 174.293C674.437 174.135 673.682 173.825 672.943 173.362C672.226 172.894 671.522 172.308 670.832 171.604Z" fill="black" fill-opacity="0.1"/>
<path d="M682.933 156.88L688.927 155.274L693.805 173.479L698.364 172.257L693.486 154.052L699.512 152.438L698.41 148.325L681.831 152.767L682.933 156.88Z" fill="black" fill-opacity="0.1"/>
<path d="M705.942 158.267C705.56 156.843 705.519 155.498 705.818 154.234C706.117 152.969 706.702 151.878 707.572 150.961C708.443 150.045 709.569 149.401 710.951 149.031C712.354 148.655 713.661 148.646 714.873 149.005C716.086 149.364 717.127 150.019 717.997 150.97C718.867 151.922 719.493 153.109 719.875 154.534C720.256 155.958 720.297 157.302 719.998 158.567C719.721 159.826 719.147 160.914 718.276 161.83C717.405 162.747 716.279 163.391 714.898 163.761C713.516 164.131 712.219 164.137 711.007 163.778C709.794 163.42 708.742 162.767 707.851 161.822C706.96 160.876 706.323 159.691 705.942 158.267ZM701.128 159.557C701.577 161.236 702.283 162.721 703.244 164.013C704.2 165.283 705.351 166.307 706.699 167.085C708.046 167.863 709.512 168.359 711.095 168.573C712.694 168.759 714.355 168.622 716.076 168.161C717.798 167.699 719.294 166.991 720.564 166.035C721.85 165.053 722.872 163.891 723.628 162.549C724.406 161.202 724.892 159.739 725.084 158.161C725.292 156.556 725.171 154.914 724.721 153.235C724.265 151.535 723.552 150.063 722.581 148.819C721.625 147.549 720.466 146.538 719.103 145.787C717.761 145.031 716.304 144.567 714.732 144.396C713.154 144.203 711.515 144.335 709.814 144.791C708.135 145.24 706.65 145.946 705.358 146.907C704.082 147.841 703.052 148.972 702.269 150.298C701.485 151.624 700.987 153.079 700.773 154.663C700.554 156.225 700.672 157.856 701.128 159.557Z" fill="black" fill-opacity="0.1"/>
<path d="M725.255 141.132L731.235 163.45L735.795 162.228L729.814 139.91L725.255 141.132ZM729.063 144.246L733.494 143.059C734.706 142.734 735.736 142.754 736.586 143.119C737.43 143.462 737.997 144.176 738.287 145.26C738.572 146.323 738.438 147.224 737.885 147.965C737.331 148.706 736.449 149.238 735.237 149.563L730.805 150.75L731.839 154.608L736.271 153.421C738.035 152.948 739.457 152.259 740.536 151.355C741.636 150.445 742.373 149.371 742.747 148.131C743.116 146.871 743.106 145.518 742.719 144.073C742.326 142.606 741.658 141.43 740.714 140.543C739.77 139.657 738.595 139.095 737.187 138.857C735.8 138.614 734.225 138.728 732.461 139.201L728.029 140.388L729.063 144.246Z" fill="black" fill-opacity="0.1"/>
<path d="M281.863 293.601C281.863 285.155 282.486 276.855 283.687 268.743C285.296 257.88 285.413 246.752 282.462 236.175L250.803 122.72C246.202 106.232 262.175 91.4484 278.258 97.3075L365.28 129.009C379.835 134.311 395.72 133.586 410.784 129.979C423.399 126.958 436.565 125.359 450.105 125.359C463.616 125.359 476.754 126.952 489.344 129.959C504.396 133.555 520.266 134.275 534.808 128.977L621.742 97.3074C637.826 91.4484 653.798 106.232 649.197 122.72L617.671 235.701C614.705 246.328 614.838 257.51 616.476 268.422C617.708 276.635 618.347 285.044 618.347 293.601V461.843C618.347 485.072 599.516 503.903 576.287 503.903H323.924C300.694 503.903 281.863 485.072 281.863 461.843V293.601Z" fill="#03D2FF"/>
<path d="M281.863 293.601C281.863 285.155 282.486 276.855 283.687 268.743C285.296 257.88 285.413 246.752 282.462 236.175L250.803 122.72C246.202 106.232 262.175 91.4484 278.258 97.3075L365.28 129.009C379.835 134.311 395.72 133.586 410.784 129.979C423.399 126.958 436.565 125.359 450.105 125.359C463.616 125.359 476.754 126.952 489.344 129.959C504.396 133.555 520.266 134.275 534.808 128.977L621.742 97.3074C637.826 91.4484 653.798 106.232 649.197 122.72L617.671 235.701C614.705 246.328 614.838 257.51 616.476 268.422C617.708 276.635 618.347 285.044 618.347 293.601V461.843C618.347 485.072 599.516 503.903 576.287 503.903H323.924C300.694 503.903 281.863 485.072 281.863 461.843V293.601Z" fill="url(#paint0_linear_83_2)"/>
<path fill-rule="evenodd" clip-rule="evenodd" d="M304.49 271.824C303.439 278.919 302.893 286.19 302.893 293.601V461.843C302.893 473.458 312.309 482.873 323.924 482.873H576.287C587.901 482.873 597.317 473.458 597.317 461.843V293.601C597.317 286.092 596.756 278.727 595.678 271.543C593.774 258.854 593.389 244.472 597.414 230.048L628.941 117.067L542.006 148.737C522.26 155.931 501.872 154.574 484.457 150.414C473.457 147.786 461.958 146.389 450.105 146.389C438.227 146.389 426.704 147.792 415.681 150.431C398.252 154.604 377.846 155.969 358.082 148.769L271.059 117.067L302.718 230.522C306.724 244.878 306.361 259.191 304.49 271.824ZM283.687 268.743C282.486 276.855 281.863 285.155 281.863 293.601V461.843C281.863 485.072 300.694 503.903 323.924 503.903H576.287C599.516 503.903 618.347 485.072 618.347 461.843V293.601C618.347 285.044 617.708 276.635 616.476 268.422C614.838 257.51 614.705 246.328 617.671 235.701L649.197 122.72C653.798 106.232 637.826 91.4484 621.742 97.3074L534.808 128.977C520.266 134.275 504.396 133.555 489.344 129.959C476.754 126.952 463.616 125.359 450.105 125.359C436.565 125.359 423.399 126.958 410.784 129.979C395.72 133.586 379.835 134.311 365.28 129.009L278.258 97.3075C262.175 91.4484 246.202 106.232 250.803 122.72L282.462 236.175C285.413 246.752 285.296 257.88 283.687 268.743Z" fill="#007D99"/>
<path fill-rule="evenodd" clip-rule="evenodd" d="M440.588 334.469C428.614 340.929 411.747 341.514 390.542 336.486C386.021 335.414 383.225 330.881 384.297 326.36C385.369 321.84 389.903 319.044 394.423 320.116C414.017 324.762 425.961 323.244 432.599 319.662C438.548 316.452 441.693 310.758 441.693 302.013H458.517C458.517 310.758 461.662 316.452 467.612 319.662C474.25 323.244 486.194 324.762 505.787 320.116C510.308 319.044 514.841 321.84 515.913 326.36C516.985 330.881 514.19 335.414 509.669 336.486C488.464 341.514 471.597 340.929 459.623 334.469C455.794 332.403 452.641 329.838 450.105 326.896C447.57 329.838 444.417 332.403 440.588 334.469Z" fill="white"/>
<path d="M397.53 282.034C397.53 296.553 385.76 308.322 371.242 308.322C356.724 308.322 344.954 296.553 344.954 282.034C344.954 267.516 356.724 255.747 371.242 255.747C385.76 255.747 397.53 267.516 397.53 282.034Z" fill="white"/>
<path d="M555.257 282.034C555.257 296.553 543.487 308.322 528.969 308.322C514.45 308.322 502.681 296.553 502.681 282.034C502.681 267.516 514.45 255.747 528.969 255.747C543.487 255.747 555.257 267.516 555.257 282.034Z" fill="white"/>
<path fill-rule="evenodd" clip-rule="evenodd" d="M430.525 294.878C423.693 288.318 428.336 276.777 437.808 276.777H462.403C471.875 276.777 476.518 288.318 469.685 294.878L457.387 306.684C453.319 310.59 446.892 310.59 442.823 306.684L430.525 294.878Z" fill="white"/>
</g>
<defs>
<linearGradient id="paint0_linear_83_2" x1="450" y1="83.2985" x2="450" y2="503.903" gradientUnits="userSpaceOnUse">
<stop offset="0.357734" stop-opacity="0"/>
<stop offset="0.9522" stop-opacity="0.2"/>
</linearGradient>
<clipPath id="clip0_83_2">
<rect width="900" height="600" fill="white"/>
</clipPath>
</defs>
</svg>
