<svg width="500" height="500" viewBox="0 0 500 500" fill="none" xmlns="http://www.w3.org/2000/svg">
<path d="M0 500V257.793L50 307.836L100 257.793L150 307.836L200 257.793L250 307.836L300 257.793L350 307.836L400 257.793L450 307.836L500 257.793V500H0Z" fill="#252525"/>
<path d="M0 15.1601V0L7.57349 7.58007L0 15.1601Z" fill="#252525"/>
<path d="M35.3555 57.6227L50 72.2799L64.6445 57.6227L50 42.9656L35.3555 57.6227Z" fill="#252525"/>
<path d="M0 129.4L21.7158 107.665L0 85.9312V129.4Z" fill="#252525"/>
<path d="M21.2131 157.708L50 186.519L78.7869 157.708L50 128.897L21.2131 157.708Z" fill="#252525"/>
<path d="M0 243.639L35.8579 207.751L0 171.862V243.639Z" fill="#252525"/>
<path d="M50 300.759L7.07104 257.793L50 214.828L92.929 257.793L50 300.759Z" fill="#252525"/>
<path d="M150 300.759L107.071 257.793L150 214.828L192.929 257.793L150 300.759Z" fill="#252525"/>
<path d="M207.071 257.793L250 300.759L292.929 257.793L250 214.828L207.071 257.793Z" fill="#252525"/>
<path d="M350 300.759L307.071 257.793L350 214.828L392.929 257.793L350 300.759Z" fill="#252525"/>
<path d="M100 243.639L64.1421 207.751L100 171.862L135.858 207.751L100 243.639Z" fill="#252525"/>
<path d="M164.142 207.751L200 243.639L235.858 207.751L200 171.862L164.142 207.751Z" fill="#252525"/>
<path d="M300 243.639L264.142 207.751L300 171.862L335.858 207.751L300 243.639Z" fill="#252525"/>
<path d="M150 186.519L121.213 157.708L150 128.897L178.787 157.708L150 186.519Z" fill="#252525"/>
<path d="M221.213 157.708L250 186.519L278.787 157.708L250 128.897L221.213 157.708Z" fill="#252525"/>
<path d="M350 186.519L321.213 157.708L350 128.897L378.787 157.708L350 186.519Z" fill="#252525"/>
<path d="M100 129.4L78.2842 107.665L100 85.9312L121.716 107.665L100 129.4Z" fill="#252525"/>
<path d="M178.284 107.665L200 129.4L221.716 107.665L200 85.9312L178.284 107.665Z" fill="#252525"/>
<path d="M300 129.4L278.284 107.665L300 85.9312L321.716 107.665L300 129.4Z" fill="#252525"/>
<path d="M450 300.759L407.071 257.793L450 214.828L492.929 257.793L450 300.759Z" fill="#252525"/>
<path d="M421.213 157.708L450 186.519L478.787 157.708L450 128.897L421.213 157.708Z" fill="#252525"/>
<path d="M450 72.2799L435.355 57.6227L450 42.9656L464.645 57.6227L450 72.2799Z" fill="#252525"/>
<path d="M135.355 57.6227L150 72.2799L164.645 57.6227L150 42.9656L135.355 57.6227Z" fill="#252525"/>
<path d="M250 72.2799L235.355 57.6227L250 42.9656L264.645 57.6227L250 72.2799Z" fill="#252525"/>
<path d="M335.355 57.6227L350 72.2799L364.645 57.6227L350 42.9656L335.355 57.6227Z" fill="#252525"/>
<path d="M464.142 207.751L500 243.639V171.862L464.142 207.751Z" fill="#252525"/>
<path d="M500 129.4L478.284 107.665L500 85.9312V129.4Z" fill="#252525"/>
<path d="M492.426 7.58007L500 15.1601V0L492.426 7.58007Z" fill="#252525"/>
<path d="M400 243.639L364.142 207.751L400 171.862L435.858 207.751L400 243.639Z" fill="#252525"/>
<path d="M378.284 107.665L400 129.4L421.716 107.665L400 85.9312L378.284 107.665Z" fill="#252525"/>
<path d="M400 15.1601L392.426 7.58007L400 0L407.574 7.58007L400 15.1601Z" fill="#252525"/>
<path d="M92.4265 7.58007L100 15.1601L107.573 7.58007L100 0L92.4265 7.58007Z" fill="#252525"/>
<path d="M200 15.1601L192.427 7.58007L200 0L207.574 7.58007L200 15.1601Z" fill="#252525"/>
<path d="M292.426 7.58007L300 15.1601L307.574 7.58007L300 0L292.426 7.58007Z" fill="#252525"/>
</svg>
