<svg width="100" height="100" viewBox="0 0 100 100" fill="none" xmlns="http://www.w3.org/2000/svg">
<g clip-path="url(#clip0_93_17)">
<path d="M95 17.5C95 60.302 60.302 95 17.5 95C15.5689 95 13.6543 94.9295 11.7586 94.7905C9.5831 94.631 8.4953 94.5515 7.50515 93.9815C6.68505 93.5095 5.9073 92.6725 5.49625 91.82C5 90.791 5 89.5905 5 87.19V73.1035C5 71.0845 5 70.075 5.33225 69.21C5.62575 68.4455 6.10245 67.765 6.7205 67.228C7.42015 66.62 8.3688 66.275 10.266 65.585L26.3002 59.7545C28.5076 58.952 29.6113 58.5505 30.6585 58.6185C31.5818 58.6785 32.4704 58.994 33.2253 59.529C34.0814 60.1355 34.6856 61.1425 35.8941 63.157L37.7079 66.18C39.0143 68.3572 41.7576 69.2293 43.9855 68.0114C54.0962 62.4843 62.4764 54.0964 68.0078 43.9873C69.2273 41.7586 68.3557 39.0134 66.1773 37.7063L63.157 35.8941C61.1425 34.6856 60.1355 34.0814 59.529 33.2253C58.994 32.4704 58.6785 31.5818 58.6185 30.6585C58.5505 29.6113 58.952 28.5076 59.7545 26.3002L65.585 10.266C66.275 8.3688 66.62 7.42015 67.228 6.7205C67.765 6.10245 68.4455 5.62575 69.21 5.33225C70.075 5 71.0845 5 73.1035 5H87.19C89.5905 5 90.791 5 91.82 5.49625C92.6725 5.9073 93.5095 6.68505 93.9815 7.50515C94.5515 8.49535 94.631 9.5831 94.7905 11.7586C94.9295 13.6543 95 15.5689 95 17.5Z" stroke="white" stroke-width="10" stroke-linecap="round" stroke-linejoin="round"/>
</g>
<defs>
<clipPath id="clip0_93_17">
<rect width="100" height="100" fill="white"/>
</clipPath>
</defs>
</svg>
