<svg width="100" height="100" viewBox="0 0 100 100" fill="none" xmlns="http://www.w3.org/2000/svg">
<g clip-path="url(#clip0_93_34)">
<path d="M85.5912 14.432C78.0261 6.89013 69.9721 11.7784 64.9209 16.8063L17.2486 64.4786C12.1974 69.5298 6.91341 77.2114 14.8743 85.149C22.8119 93.0866 30.4702 87.8026 35.5214 82.7514L83.1937 35.0791C88.2449 30.0512 93.1331 21.9739 85.5912 14.432ZM40.0372 12.4767L50.1397 22.5791L60.405 12.2905C61.1034 11.5922 61.8017 10.9404 62.5233 10.3352C61.4525 4.91154 58.3566 0 50.1164 0C41.8762 0 38.7803 4.93482 37.7328 10.3585C38.5009 11.0335 39.2691 11.7086 40.0372 12.4767ZM60.405 87.4534L50.1397 77.1881L40.0372 87.2672C39.2691 88.0354 38.5242 88.757 37.7561 89.4088C38.9199 94.9488 42.1788 100 50.1164 100C58.0773 100 61.3594 94.9022 62.5 89.3622C61.8017 88.757 61.1034 88.1518 60.405 87.4534ZM35.7542 36.9413H16.2942C9.14804 36.9413 0 39.1993 0 49.8603C0 57.8445 5.09777 61.1034 10.6611 62.244C11.3128 61.4991 35.7542 36.9413 35.7542 36.9413ZM89.6415 37.4767C89.0363 38.175 64.5251 62.8026 64.5251 62.8026H83.7058C90.852 62.8026 100 61.1033 100 49.8603C100 41.6434 95.0885 38.5475 89.6415 37.4767ZM42.1322 30.5633L45.6006 27.095L35.5214 16.9926C30.4702 11.9413 22.8119 6.65735 14.851 14.6182C9.03166 20.4376 10.3352 26.1173 13.4078 30.703C14.3622 30.6331 42.1322 30.5633 42.1322 30.5633ZM58.1238 69.1806L54.6322 72.6723L64.9209 82.9376C69.9721 87.9888 78.0261 92.8771 85.568 85.3352C91.2011 79.7021 89.9209 73.7663 86.8017 69.041C85.8008 69.1108 58.1238 69.1806 58.1238 69.1806Z" fill="white"/>
</g>
<defs>
<clipPath id="clip0_93_34">
<rect width="100" height="100" fill="white"/>
</clipPath>
</defs>
</svg>
