<svg width="100" height="100" viewBox="0 0 100 100" fill="none" xmlns="http://www.w3.org/2000/svg">
<path fill-rule="evenodd" clip-rule="evenodd" d="M45 2.88675C48.094 1.10042 51.906 1.10042 55 2.88675L88.3013 22.1132C91.3953 23.8996 93.3013 27.2008 93.3013 30.7735V69.2265C93.3013 72.7992 91.3953 76.1004 88.3013 77.8868L55 97.1132C51.906 98.8996 48.094 98.8996 45 97.1132L11.6987 77.8868C8.60472 76.1004 6.69873 72.7992 6.69873 69.2265V30.7735C6.69873 27.2008 8.60472 23.8996 11.6987 22.1132L45 2.88675ZM50 44.2265L21.6987 27.8868L50 11.547L78.3013 27.8868L50 44.2265ZM55 52.8868V85.5662L83.3013 69.2265V36.547L55 52.8868ZM16.6987 36.547L45 52.8867V85.5662L16.6987 69.2265V36.547Z" fill="white"/>
</svg>
